<svg width="28" height="33" fill="none" xmlns="http://www.w3.org/2000/svg"><path d="M15.109 31.078c.056.014.112.03.168.047a8.078 8.078 0 002.29.336c1.267 0 2.6-.75 3.837-1.938 2.789-2.675 5.096-7.572 5.096-11.116 0-5.116-3.064-8.207-5.945-8.953-1.211-.314-2.591-.175-3.785.09" stroke="#FF89C9" stroke-width="1.23" stroke-miterlimit="10" stroke-linecap="round" stroke-linejoin="round"/><path d="M21.378 23.163c.64-1.65 1.022-3.314 1.022-4.756 0-4.93-2.845-7.98-5.63-8.863.233-.051-.11.02-.49.119-.268.07-.54.128-.812.174m-8.936-.202c-2.697.987-5.365 3.998-5.365 8.772 0 3.468 2.21 8.233 4.918 10.942 1.287 1.289 2.687 2.112 4.016 2.112a8.08 8.08 0 002.289-.336 4.983 4.983 0 012.72-.047s0 0 0 0m-.292-20.554v-.926c0-6.26 5.426-8.393 5.426-8.393" stroke="#FF89C9" stroke-width="1.23" stroke-miterlimit="10" stroke-linecap="round" stroke-linejoin="round"/><path d="M14.717 11.61s.923-5.161-1.694-7.775C10.406 1.22 5.24 2.143 5.24 2.143v0" stroke="#FF89C9" stroke-width="1.23" stroke-miterlimit="10" stroke-linecap="round" stroke-linejoin="round"/><path d="M5.24 2.143c0 .002-.923 5.161 1.693 7.775 2.617 2.614 7.781 1.692 7.784 1.692L9.104 6.003" stroke="#FF89C9" stroke-width="1.23" stroke-miterlimit="10" stroke-linecap="round" stroke-linejoin="round"/></svg>