<svg width="29" height="32" fill="none" xmlns="http://www.w3.org/2000/svg"><path d="M20.125 0v16.063m3.75 15H18.25a3.75 3.75 0 01-3.75-3.75v-3.75a5.627 5.627 0 013.75-5.305v-2.195H22v2.195a5.627 5.627 0 013.75 5.305v1.875c0 1.035.84 1.875 1.875 1.875 0 1.201 0 0 0 0a3.75 3.75 0 01-3.75 3.75zm-9.055-9.375H2.312" stroke="#8EB0FF" stroke-width="1.875" stroke-miterlimit="10"/><path d="M16 30.313c-.342.455-.887.75-1.5.75H7a1.875 1.875 0 01-1.875-1.875v-7.5m0-7.5a1.875 1.875 0 11-3.75 0 1.875 1.875 0 013.75 0zm.938 3.75h1.875M18.25 28.25a2.813 2.813 0 002.813 2.813M22 28.25a2.813 2.813 0 002.813 2.813" stroke="#8EB0FF" stroke-width="1.875" stroke-miterlimit="10"/></svg>