<svg width="68" height="68" fill="none" xmlns="http://www.w3.org/2000/svg"><path d="M62.88 31.595l-2.147 7.557H7.27l-2.151-7.557H62.88zM47.664 65.943a3.05 3.05 0 01-3.041-3.04v-6.245h6.078v6.245a3.05 3.05 0 01-3.037 3.04z" fill="#FF963A" stroke="#fff" stroke-width=".113"/><path d="M13.379 14.81c0-2.25.273-4.392 1.766-5.668m24.902 8.883c0-3.643 1.136-6.877 2.887-8.883m8.389 0c1.751 2.006 2.887 5.24 2.887 8.883m-50.466 6.49h60.512c.959 0 1.744.781 1.744 1.74v3.54a1.75 1.75 0 01-1.744 1.744H3.744A1.75 1.75 0 012 29.795v-3.54c0-.959.785-1.74 1.744-1.74zm14.779 0c.384-4.06 3.798-7.235 7.954-7.235a7.993 7.993 0 017.957 7.235" stroke="#fff" stroke-width="2.266" stroke-miterlimit="10" stroke-linecap="round" stroke-linejoin="round"/><path d="M31.7 19.227a18.51 18.51 0 01-.04-1.202c0-6.088 3.171-11.021 7.083-11.021 1.567 0 3.02.792 4.193 2.138 1.172-1.346 2.625-2.138 4.192-2.138 1.57 0 3.02.792 4.196 2.138 1.173-1.346 2.626-2.138 4.193-2.138 3.912 0 7.083 4.933 7.083 11.02 0 2.427-.505 4.669-1.357 6.49m-40.345-4.962c.173-3.909-2.02-7.283-7.518-4.742-7.895-3.647-8.975 4.893-6.036 9.705M26.637 66c5.173 0 9.395-4.222 9.395-9.399 0-5.177-4.222-9.399-9.395-9.399-5.177 0-9.399 4.222-9.399 9.4 0 5.176 4.222 9.398 9.4 9.398z" stroke="#fff" stroke-width="2.266" stroke-miterlimit="10" stroke-linecap="round" stroke-linejoin="round"/><path d="M5.043 31.539L12.167 56.6h5.074m18.794 0h19.797l7.123-25.062M26.637 60.211a3.618 3.618 0 003.61-3.61 3.618 3.618 0 00-3.61-3.61 3.616 3.616 0 00-3.61 3.61 3.616 3.616 0 003.61 3.61zM47.129 7.004V2" stroke="#fff" stroke-width="2.266" stroke-miterlimit="10" stroke-linecap="round" stroke-linejoin="round"/></svg>