<svg width="30" height="32" fill="none" xmlns="http://www.w3.org/2000/svg"><path d="M16.345 7.845a3.72 3.72 0 01-2.647 1.096.727.727 0 000 1.454 5.161 5.161 0 003.675-1.523.728.728 0 10-1.028-1.028z" fill="#89C74A"/><path d="M26.599 9.216a5.558 5.558 0 00-8.26-6.307 5.211 5.211 0 00-9.78 1.251 6.248 6.248 0 00-6.677 6.24c0 .416.044.832.129 1.24A5.847 5.847 0 00.5 15.582a5.862 5.862 0 007.355 5.715 19.962 19.962 0 012.777 8.673A2.195 2.195 0 0012.806 32h4.48a2.187 2.187 0 002.17-2.028 19.366 19.366 0 013.14-9.218 6.25 6.25 0 004.002-11.538zM18.005 29.87a.727.727 0 01-.72.678h-4.48a.727.727 0 01-.721-.683 21.506 21.506 0 00-2.856-9.105 5.887 5.887 0 001.13-.786 37.4 37.4 0 012.539 5.698.728.728 0 001.422-.218c.007-2.258.137-4.514.387-6.759a7.092 7.092 0 001.6-.105 30.777 30.777 0 00-.533 6.93.727.727 0 00.643.654.728.728 0 00.776-.494 41.012 41.012 0 012.675-5.938c.386.261.801.477 1.236.645a20.985 20.985 0 00-3.098 9.48v.003zm-6.644-11.076a5.88 5.88 0 00.466-.859c.457.239.94.425 1.44.553-.145 1.012-.244 2.273-.303 3.446a38.757 38.757 0 00-1.603-3.143v.003zm6.553-.699c.073-.032.146-.056.218-.09.185.273.391.532.616.774a38.4 38.4 0 00-1.381 2.69c.1-1.137.283-2.266.547-3.377v.003zm5.423 1.25a4.777 4.777 0 01-4.291-2.656.721.721 0 00-1.04-.287 5.544 5.544 0 01-6.147-.158.728.728 0 00-1.13.415 4.451 4.451 0 11-8.116-3.397 6.275 6.275 0 003.085 2.804.727.727 0 10.567-1.34 4.885 4.885 0 01-2.755-3.067 4.788 4.788 0 015.538-5.97.727.727 0 00.863-.671 3.758 3.758 0 017.39-.76.727.727 0 001.194.351 4.105 4.105 0 016.546 4.655 4.02 4.02 0 01-3.668 2.372.727.727 0 000 1.455 5.476 5.476 0 004.616-2.539 4.795 4.795 0 01-2.652 8.793z" fill="#89C74A"/></svg>