<svg width="33" height="32" fill="none" xmlns="http://www.w3.org/2000/svg"><path d="M8.726 4.025a1.713 1.713 0 010-2.425A.937.937 0 107.4.275a3.593 3.593 0 000 5.075c.67.67.67 1.755 0 2.425A.937.937 0 108.726 9.1a3.591 3.591 0 000-5.075zm5.625 0a1.713 1.713 0 010-2.425.937.937 0 00-1.326-1.325 3.593 3.593 0 000 5.075c.67.67.67 1.755 0 2.425A.937.937 0 1014.351 9.1a3.591 3.591 0 000-5.075zm5.625 0a1.713 1.713 0 010-2.425.937.937 0 10-1.325-1.325 3.593 3.593 0 000 5.075c.67.67.67 1.755 0 2.425A.937.937 0 0019.976 9.1a3.591 3.591 0 000-5.075zm4.088 20.413c4.652 0 8.437-3.785 8.437-8.438a2.816 2.816 0 00-2.812-2.813h-2.831c.012-.311.018-.624.018-.937a.938.938 0 00-.938-.938h-24.5a.938.938 0 00-.937.938c0 5.125 1.645 10.5 5.072 14.125H1.44a.938.938 0 00-.84 1.357A7.72 7.72 0 007.508 32H19.87a7.723 7.723 0 006.908-4.268.938.938 0 00-.838-1.357h-4.135a15.728 15.728 0 001.556-1.938h.704zm2.65-9.375h2.975c.517 0 .937.42.937.937a6.57 6.57 0 01-6.142 6.549c1.172-2.268 1.92-4.829 2.23-7.486zm-2.548 13.175a5.826 5.826 0 01-4.297 1.887H7.508a5.826 5.826 0 01-4.297-1.887h20.955zm-5.155-1.863H8.366c-3.452-2.612-5.736-7.694-5.97-13.2l22.585.013c-.207 4.865-2.147 10.294-5.97 13.187z" fill="#FF7C08"/></svg>