<svg width="33" height="33" fill="none" xmlns="http://www.w3.org/2000/svg"><path d="M16.499 10.578l3.827-5.226 3.825 5.226" stroke="#94B0FC" stroke-width="1.156" stroke-miterlimit="10" stroke-linecap="round" stroke-linejoin="round"/><path d="M5.249 5.352V2.717c0-.678.555-1.234 1.235-1.234h12.605c.68 0 1.237.556 1.237 1.234v2.635H5.249zM.792 10.578l4.457-5.226m11.25 5.226v21.273M.792 18.487v.691c0 .865.707 1.572 1.571 1.572.863 0 1.57-.71 1.57-1.572v-1.006c0-.863.707-1.572 1.571-1.572.863 0 1.57.709 1.57 1.572v1.1c0 .865.707 1.571 1.572 1.571.864 0 1.571-.708 1.571-1.571v-2.484c0-.863.707-1.571 1.57-1.571.864 0 1.571.708 1.571 1.571v3.338c0 .863.707 1.57 1.572 1.57.862 0 1.57-.707 1.57-1.57v-2.147m3.135-.743h11.907l-1.3 14.615h-9.309l-1.298-14.615zm-8.183 11.192h9.177m-19.837 0h5.047" stroke="#94B0FC" stroke-width="1.156" stroke-miterlimit="10" stroke-linecap="round" stroke-linejoin="round"/><path d="M20.934 31.85H.792V10.579h23.359v6.658" stroke="#94B0FC" stroke-width="1.156" stroke-miterlimit="10" stroke-linecap="round" stroke-linejoin="round"/><path d="M20.072 22.167c.867.44 1.89.44 2.757 0a3.042 3.042 0 012.758 0c.867.44 1.89.44 2.757 0a3.062 3.062 0 012.758 0M8.649 28.428h-.003" stroke="#94B0FC" stroke-width="1.156" stroke-miterlimit="10" stroke-linecap="round" stroke-linejoin="round"/></svg>