<svg width="70" height="52" fill="none" xmlns="http://www.w3.org/2000/svg"><path d="M6.052 8.745l11.161-1.86v33.853l-4.911 1.034a6 6 0 01-7.131-4.754L1.143 15.782a6 6 0 014.909-7.037zm57.896 0l-11.161-1.86v33.853l4.911 1.034a6 6 0 007.131-4.754l4.028-21.236a6 6 0 00-4.909-7.037z" fill="#fff" stroke="#4EB529" stroke-width="2"/><g filter="url(#filter0_dd_1321_7835)"><rect x="16.066" width="37.869" height="44.754" rx="6" fill="#fff"/><rect x="17.066" y="1" width="35.869" height="42.754" rx="5" stroke="#4EB529" stroke-width="2"/></g><path d="M47.935 43.754H22.066a5 5 0 01-5-5v-3.461l12.407-13.148 9.51 10.944a2 2 0 003.028-.01l5.235-6.102 5.69 6.12v5.657a5 5 0 01-5 5z" fill="#EFF6FF" stroke="#4EB529" stroke-width="2"/><circle cx="39.59" cy="14.344" r="4.164" fill="#EFF6FF" stroke="#4EB529" stroke-width="2"/><defs><filter id="filter0_dd_1321_7835" x="13.066" y="0" width="43.867" height="51.754" filterUnits="userSpaceOnUse" color-interpolation-filters="sRGB"><feFlood flood-opacity="0" result="BackgroundImageFix"/><feColorMatrix in="SourceAlpha" values="0 0 0 0 0 0 0 0 0 0 0 0 0 0 0 0 0 0 127 0" result="hardAlpha"/><feOffset dy="2"/><feGaussianBlur stdDeviation="1"/><feComposite in2="hardAlpha" operator="out"/><feColorMatrix values="0 0 0 0 0 0 0 0 0 0 0 0 0 0 0 0 0 0 0.06 0"/><feBlend in2="BackgroundImageFix" result="effect1_dropShadow_1321_7835"/><feColorMatrix in="SourceAlpha" values="0 0 0 0 0 0 0 0 0 0 0 0 0 0 0 0 0 0 127 0" result="hardAlpha"/><feOffset dy="4"/><feGaussianBlur stdDeviation="1.5"/><feComposite in2="hardAlpha" operator="out"/><feColorMatrix values="0 0 0 0 0 0 0 0 0 0 0 0 0 0 0 0 0 0 0.07 0"/><feBlend in2="effect1_dropShadow_1321_7835" result="effect2_dropShadow_1321_7835"/><feBlend in="SourceGraphic" in2="effect2_dropShadow_1321_7835" result="shape"/></filter></defs></svg>