<svg width="33" height="32" fill="none" xmlns="http://www.w3.org/2000/svg"><path d="M26.699 22.173l-3.224-2.523c.215-.952.002-1.87-.641-2.66-1.29-1.589-1.574-3.468-1.873-5.458-.434-2.876-.927-6.135-4.563-8.988C14.388.967 12.323.167 10.258.167c-3.792 0-6.184 2.686-6.274 2.789-.16.176-3.92 4.38-3.23 9.4.42 3.06 2.388 5.71 5.851 7.883l.067.037c.28.139 6.86 3.38 8.83 3.989.885.273 1.614.4 2.291.4a4.37 4.37 0 001.639-.306l3.633 2.281c-.146 1.09-.203 3.476 1.833 4.59a3.567 3.567 0 001.712.44 3.53 3.53 0 002.367-.906c.808-.73 1.175-1.735 1.044-2.767.641-.159 1.461-.5 1.95-1.227.322-.482.611-1.316.157-2.559-.93-2.555-3.756-2.495-5.43-2.038zm-6.137-.848l-.071.115c-.927 1.527-1.984 1.703-2.697 1.703-.521 0-1.106-.106-1.842-.333-1.785-.55-8.043-3.623-8.57-3.881-3.038-1.915-4.76-4.192-5.117-6.77-.598-4.31 2.813-8.142 2.855-8.188.02-.022 2.053-2.28 5.139-2.28 1.716 0 3.465.69 5.2 2.051 3.16 2.481 3.565 5.17 3.996 8.019.317 2.103.646 4.279 2.197 6.189.307.376.647.994.086 2.012-.407.74-1.067 1.275-1.07 1.28l-.106.083zm10.147 4.593c-.348.522-1.348.682-1.668.697a.76.76 0 00-.672 1.056c.438 1.041-.141 1.718-.41 1.96a2.029 2.029 0 01-2.33.263c-1.593-.872-.991-3.418-.985-3.441a.76.76 0 00-.334-.83l-3.478-2.183c.324-.31.623-.673.893-1.1a6.706 6.706 0 001.108-1.259l3.24 2.536a.771.771 0 00.72.12c.127-.045 3.155-1.063 3.905.995.19.514.192.914.011 1.186z" fill="#FACD58"/><path d="M13.579 4.41c-3.122-1.773-5.654-.431-6.556.525a.763.763 0 00.553 1.284c.202 0 .404-.08.554-.238.017-.02 1.823-1.878 4.696-.246a.761.761 0 00.752-1.325zm1.397 1.2a.934.934 0 000 1.865.934.934 0 000-1.865z" fill="#FACD58"/></svg>