<svg width="39" height="42" fill="none" xmlns="http://www.w3.org/2000/svg"><path d="M35.217 24v11.274c0 1.352-1.073 2.462-2.426 2.462H20.725L17.695 41l-3.032-3.264H3.413C2.061 37.736 1 36.626 1 35.274V24.665c0-1.351 1.061-2.453 2.413-2.453h9.372m17.074-8.529h6.572c.92 0 1.665-.745 1.665-1.665v-.043c0-.956-.768-1.724-1.716-1.724h-9.526l.685-1.027a9.726 9.726 0 001.536-6.77 1.692 1.692 0 00-3.317-.172 8.084 8.084 0 01-4.597 5.443l-2.628 1.153m11.325 4.805h6.521a1.716 1.716 0 110 3.432h-6.52m-.001 0h6.521a1.716 1.716 0 110 3.433h-5.834" stroke="#4EB529" stroke-width="1.544" stroke-miterlimit="10" stroke-linecap="round" stroke-linejoin="round"/><path d="M29.859 20.547h5.148a1.716 1.716 0 110 3.433H22.298a4.119 4.119 0 01-2.912-1.207l-.853-.853" stroke="#4EB529" stroke-width="1.544" stroke-miterlimit="10" stroke-linecap="round" stroke-linejoin="round"/><path d="M20.515 30.803a2.448 2.448 0 10-4.822-.85 2.448 2.448 0 004.822.85zm9.762.141a2.448 2.448 0 10-4.765-1.125 2.448 2.448 0 004.765 1.125zm-19.587.006a2.448 2.448 0 10-4.762-1.14 2.448 2.448 0 004.762 1.14zm8.655-5.471h-7.36V6.006h7.36v19.473z" fill="#FF7C08"/></svg>