<svg width="48" height="48" fill="none" xmlns="http://www.w3.org/2000/svg"><path d="M28.297 19.479l-1.24.873v-1.77a2.831 2.831 0 00-2.831-2.832H9.01a11.487 11.487 0 01-.763-4.137c0-3.12 1.223-6.046 3.444-8.237A11.498 11.498 0 0119.978.045c6.37.087 11.486 5.345 11.404 11.718a11.611 11.611 0 01-3.085 7.716zM4.75 33.407V21.414h18.5v11.993H4.75z" fill="#FF7C08" stroke="#4EB529" stroke-width=".087"/><path d="M39.46 23.229h-8.722v7.434H45.75M30.738 34.38h1.859m-5.574 7.434h6.622" stroke="#4EB529" stroke-width="1.743" stroke-miterlimit="10" stroke-linecap="round" stroke-linejoin="round"/><path d="M40.846 41.814h2.905a2.788 2.788 0 002.787-2.788v-6.413a2.78 2.78 0 00-.66-1.8l-8.727-10.314a2.788 2.788 0 00-2.128-.987h-8" stroke="#4EB529" stroke-width="1.743" stroke-miterlimit="10" stroke-linecap="round" stroke-linejoin="round"/><path d="M40.859 43.602a3.717 3.717 0 10-7.235-1.709 3.717 3.717 0 007.235 1.709zM19.82 11.612V8.36m2.323 3.252H19.82m.006-6.969h-.01M14.895 6.68l-.008.009m-2.035 4.918v.01m13.941 0v-.01m-2.039-4.918l-.008-.008M12.92 45.372a3.717 3.717 0 10-5.257-5.257 3.717 3.717 0 005.257 5.257z" stroke="#4EB529" stroke-width="1.743" stroke-miterlimit="10" stroke-linecap="round" stroke-linejoin="round"/><path d="M13.893 41.814H27.02V18.582a2.788 2.788 0 00-2.788-2.788H3.788A2.788 2.788 0 001 18.582v20.444a2.788 2.788 0 002.788 2.788h2.905" stroke="#4EB529" stroke-width="1.743" stroke-miterlimit="10" stroke-linecap="round" stroke-linejoin="round"/></svg>