<svg width="140" height="7" fill="none" xmlns="http://www.w3.org/2000/svg"><path d="M129.461 3.56c3.391.536 6.752 1.51 10.023 2.892v.004c-3.325.44-6.685.499-10.044.215-1.461-.124-2.917-.33-4.373-.553-1.022-.156-2.043-.325-3.066-.489-.598-.095-1.196-.21-1.795-.289-1.671-.198-3.342-.406-5.013-.609-1.077-.13-2.153-.276-3.232-.373-1.958-.178-3.917-.353-5.875-.53-1.434-.13-2.866-.247-4.299-.39-.315-.03-.63-.04-.944-.062l-2.496-.162c-2.203-.144-4.405-.285-6.606-.43-1.227-.08-2.453-.168-3.678-.24-1.087-.062-2.172-.084-3.258-.128-3.778-.15-7.553-.29-11.33-.445-.734-.03-1.469-.02-2.203-.023-2.077-.014-4.154-.028-6.231-.044-2.354-.018-4.709-.028-7.063-.05-.746.039-1.494.046-2.24.068-1.704.05-3.41.103-5.115.154-2.534.079-5.07.17-7.605.231-1.117.062-2.233.144-3.35.217-2.193.14-4.388.28-6.582.422-1.222.078-2.444.168-3.666.237-.37.02-.738.06-1.108.09-.93.075-1.86.152-2.79.23-2.971.243-5.943.482-8.915.733-1.089.091-2.175.191-3.266.241-.986.045-1.972.061-2.96.05a55.445 55.445 0 01-3.816-.16 41.037 41.037 0 01-2.483-.274c-.594-.066-1.186-.151-1.78-.227A13.328 13.328 0 00.697 3.75l-.185.018-.173.044-.14.103-.024.073c0 .002-.002 0-.002 0a.593.593 0 01-.001-.104.338.338 0 01.104-.213c.181-.186.129-.138.33-.292.099-.076.28-.166.386-.222a9.724 9.724 0 011.426-.605c.89-.305 1.81-.505 2.722-.696 1.446-.3 2.902-.51 4.364-.671a52.243 52.243 0 015.682-.307c1.064 0 2.126.01 3.188-.01A5995.85 5995.85 0 0038.27.48c2.346-.05 4.69-.101 7.038-.115C49.257.343 53.205.32 57.153.292a78.59 78.59 0 011.878.014c1.905.037 3.808.07 5.713.106l6.312.117c.774.015 1.548.017 2.323.047 6.033.23 12.064.447 18.098.752 6.772.343 13.544.689 20.316 1.042 2.798.146 5.597.282 8.395.413 1.606.075 3.213.18 4.818.27" fill="#FF7C08"/></svg>