<svg width="94" height="68" fill="none" xmlns="http://www.w3.org/2000/svg"><g clip-path="url(#clip0_419_13255)"><path d="M51.753 24.404a14.457 14.457 0 003.168-9.032c0-8.077-6.6-14.59-14.786-14.59-6.513 0-12.058 4.168-13.995 9.987-2.552-2.345-6.073-3.821-9.945-3.821-8.186 0-14.787 6.513-14.787 14.59 0 5.471 2.993 10.16 7.481 12.68-1.232 2.083-1.936 4.515-1.936 7.207 0 8.077 6.601 14.59 14.787 14.59 5.809 0 10.738-3.3 13.202-7.99 2.64 2.432 6.161 3.996 10.122 3.996 8.185 0 14.786-6.514 14.786-14.59-.176-5.732-3.432-10.596-8.097-13.027zm-6.777 23.882c-2.817 0-5.545-1.042-7.57-2.953l-3.52-3.3-2.2 4.343c-1.937 3.734-5.722 6.079-9.946 6.079-6.161 0-11.09-4.95-11.09-10.943 0-1.91.528-3.82 1.496-5.471l1.848-3.126-3.256-1.911c-3.52-1.91-5.633-5.645-5.633-9.553 0-6.08 5.017-10.943 11.09-10.943 2.816 0 5.457 1.043 7.481 2.953l4.137 3.734 1.76-5.297c1.496-4.516 5.721-7.469 10.562-7.469 6.16 0 11.09 4.95 11.09 10.943 0 2.518-.88 4.863-2.377 6.774l-2.728 3.473 3.96 1.998c3.697 1.91 5.986 5.645 5.986 9.727 0 6.079-5.017 10.942-11.09 10.942z" fill="#FF5601"/><path d="M35.03 47.852c3.08 2.866 7.393 4.255 11.53 3.821 4.137-.434 8.097-2.692 10.474-6.079 2.464-3.387 3.256-7.73 2.288-11.724-1.056-3.908-3.873-7.469-7.57-9.293l-.087-.086.088-.174c2.64-3.3 3.785-7.73 2.904-11.898-.88-4.082-3.608-7.73-7.393-9.727C43.567.608 38.903.348 34.942 1.911c-4.049 1.563-7.217 4.863-8.538 8.858h-.175c1.144-4.082 4.312-7.73 8.36-9.553 4.138-1.737 9.067-1.563 13.203.434 4.137 1.998 7.13 6.08 8.098 10.509.968 4.429-.176 9.379-3.081 13.026l-.352-1.91c4.049 2.084 7.041 5.992 8.097 10.334 1.056 4.343.176 9.206-2.64 12.68-2.64 3.56-6.865 5.905-11.266 6.166-4.4.26-8.802-1.477-11.706-4.43l.088-.173z" fill="#E02401"/><path d="M26.229 10.856c-2.993-2.78-7.218-4.169-11.354-3.735-4.137.348-8.01 2.606-10.386 5.906-2.465 3.213-3.345 7.469-2.465 11.464.88 3.994 3.52 7.468 7.13 9.466l.176.087-.088.173c-2.025 3.3-2.553 7.382-1.497 11.116 1.057 3.735 3.697 6.948 7.13 8.772a15.153 15.153 0 0011.354 1.129c3.696-1.216 6.953-3.908 8.713-7.295l.176.087c-1.496 3.647-4.753 6.687-8.626 8.076-3.96 1.39-8.449 1.13-12.322-.781-3.872-1.824-6.865-5.472-8.009-9.553a15.976 15.976 0 011.496-12.506l.528 2.345c-4.048-2.258-6.953-6.253-7.833-10.77C.088 23.797 0 22.494 0 21.538c0-1.215.176-2.257.352-3.386.528-2.171 1.496-4.342 2.905-6.08 2.816-3.56 7.129-5.731 11.53-5.992 4.4-.173 8.801 1.564 11.617 4.603l-.175.174z" fill="#FF692B"/><path d="M21.828 52.542a11.84 11.84 0 01-6.425-1.911c-1.937-1.216-3.433-3.04-4.401-5.21-.968-2.172-1.144-4.517-.704-6.948.176-1.13.704-2.258 1.232-3.3l1.584-2.953.44 1.563-2.64-1.303-.704-.347-.616-.434c-.529-.26-.969-.608-1.409-.956-1.672-1.39-2.992-3.213-3.696-5.21-1.497-4.082-.44-8.945 2.552-12.072 2.905-3.126 7.57-4.516 11.618-3.474 2.024.521 3.873 1.477 5.369 2.866l4.225 3.995-.704.174 1.936-5.732c.704-1.997 2.024-3.734 3.697-5.124 3.344-2.779 8.273-3.474 12.322-1.65 4.136 1.737 7.129 5.905 7.305 10.508.176 2.258-.44 4.516-1.584 6.514-.264.52-.617.955-.968 1.39l-.969 1.215-1.848 2.432-.528-2.345 2.64 1.303c.88.434 1.673.781 2.817 1.476 1.848 1.303 3.344 3.04 4.313 5.124.968 1.997 1.32 4.342 1.056 6.513-.264 2.171-1.144 4.343-2.465 6.166-2.64 3.561-7.48 5.472-11.794 4.69-2.2-.347-4.224-1.39-5.809-2.692-.88-.782-1.496-1.477-2.2-2.171l-2.024-2.085 1.144-.173-2.2 3.647c-.617 1.216-1.585 2.519-2.641 3.474-2.112 1.91-5.017 3.04-7.921 3.04zm0-.348c1.408 0 2.816-.26 4.136-.868 1.32-.521 2.465-1.39 3.433-2.345.968-.955 1.672-2.171 2.2-3.474l1.76-3.908.353-.782.792.608 2.2 1.998c.704.608 1.496 1.302 2.2 1.737 1.497 1.042 3.17 1.563 4.93 1.737 1.76.173 3.432-.174 5.016-.869 1.496-.695 2.905-1.824 3.873-3.126 2.024-2.693 2.288-6.427.968-9.466a10.177 10.177 0 00-3.169-3.822c-.528-.434-1.496-.868-2.376-1.39l-2.64-1.302-1.673-.868 1.145-1.39 1.936-2.345.968-1.129c.264-.347.528-.694.792-1.129a9.863 9.863 0 001.409-5.037c0-3.56-2.2-7.034-5.458-8.684-3.256-1.737-7.657-1.39-10.737.868a10.197 10.197 0 00-3.52 4.43c-.617 1.91-1.321 3.82-1.937 5.731l-.176.695-.616-.521a170.154 170.154 0 00-4.313-3.821 9.84 9.84 0 00-4.929-2.258c-3.609-.608-7.393.868-9.594 3.56-2.2 2.693-2.816 6.427-1.672 9.553.616 1.564 1.496 3.04 2.817 4.169.352.26.704.521.968.782l.616.347.616.347L14.61 31.7l1.057.608-.617 1.042-1.848 2.779a10.362 10.362 0 00-1.408 2.779c-.616 1.91-.616 4.168 0 6.166.616 1.997 1.936 3.908 3.785 5.124 1.76 1.302 4.048 1.997 6.249 1.997z" fill="#DE3B01"/><path d="M90.303 34.825a11.952 11.952 0 00-13.202-4.43c.352-2.865-.264-5.818-2.025-8.336-3.872-5.298-11.265-6.514-16.634-2.78a11.602 11.602 0 00-4.93 10.77 12.063 12.063 0 00-5.808 2.084c-5.37 3.734-6.601 11.116-2.817 16.413a11.93 11.93 0 0011.53 4.777c-.44 2.866.176 5.819 2.025 8.337 3.784 5.298 11.178 6.514 16.547 2.78 3.784-2.606 5.456-6.948 4.928-11.204 2.553.174 5.281-.52 7.482-2.17a11.498 11.498 0 002.904-16.241zm-4.577 13.982c-1.672 1.13-3.608 1.737-5.633 1.563l-3.608-.173.528 3.473a8.802 8.802 0 01-3.697 8.424c-4.049 2.866-9.593 1.911-12.498-2.084-1.32-1.824-1.848-4.082-1.496-6.34l.528-3.82-3.873.607c-3.432.521-6.689-.868-8.713-3.647-2.817-3.995-1.849-9.467 2.2-12.332 1.232-.869 2.817-1.477 4.4-1.564l2.905-.26-.352-2.866c-.264-3.213 1.145-6.34 3.785-8.164 4.049-2.779 9.594-1.91 12.498 2.085a9.259 9.259 0 011.496 6.253l-.616 4.516 4.401-1.303c3.697-1.13 7.657.174 9.858 3.3 2.904 3.995 1.936 9.466-2.113 12.332z" fill="#F9B212"/><path d="M56.593 53.323c-.44 3.3.616 6.687 2.817 9.206 2.2 2.518 5.545 3.995 8.89 3.995 3.344 0 6.6-1.477 8.8-3.995 2.201-2.519 3.257-5.906 2.73-9.206v-.26h.263c3.433.173 6.866-1.13 9.154-3.648 2.376-2.431 3.52-5.905 3.08-9.292-.352-3.387-2.376-6.514-5.192-8.337-2.905-1.824-6.602-2.345-9.858-1.303l-.088-.26c3.256-1.39 7.217-1.043 10.474.78 3.256 1.825 5.545 5.212 6.16 9.033.705 3.734-.703 7.816-3.344 10.682-2.64 2.866-6.601 4.516-10.562 4.342l1.76-1.91c.529 3.647-.704 7.642-3.256 10.42-2.464 2.78-6.337 4.604-10.122 4.343-3.784-.087-7.393-1.91-9.681-4.776-2.2-2.78-3.08-6.6-2.2-9.9l.175.086z" fill="#EF9506"/><path d="M77.189 30.31c.44-3.214-.616-6.601-2.817-9.12-2.2-2.431-5.457-3.908-8.713-3.908-3.345-.087-6.601 1.39-8.802 3.735-2.288 2.431-3.344 5.732-2.992 9.032v.173h-.176c-3.169.26-6.161 1.824-8.098 4.169-2.024 2.432-2.904 5.558-2.552 8.684.352 3.04 2.024 5.993 4.577 7.817 2.464 1.91 5.809 2.692 8.89 2.258v.173c-3.17.869-6.69.174-9.506-1.65-2.817-1.91-4.841-4.95-5.37-8.424-.615-3.474.44-7.121 2.641-9.9 2.2-2.866 5.633-4.603 9.242-5.037l-1.584 1.91c-.353-3.734.968-7.642 3.608-10.334.616-.695 1.496-1.39 2.113-1.824.88-.608 1.672-1.042 2.552-1.39 1.76-.694 3.608-1.042 5.457-.955 3.696.174 7.305 1.998 9.505 4.777 2.113 2.866 2.993 6.6 2.2 9.9l-.175-.087z" fill="#F9D912"/><path d="M47.264 46.897c-1.056-1.476-1.672-3.3-1.672-5.124 0-1.824.528-3.647 1.584-5.124 1.056-1.563 2.552-2.692 4.313-3.387 1.76-.694 3.608-.608 5.369-.868l-.176.26-.264-2.258c-.088-.781-.176-1.563-.088-2.431.176-1.564.704-3.127 1.672-4.43 1.848-2.605 5.193-4.081 8.361-3.734 3.257.26 6.25 2.432 7.57 5.385.616 1.476.88 3.126.704 4.69l-.616 4.602-.352-.347 4.664-1.39c1.673-.434 3.433-.434 5.017.087 3.257.955 5.897 3.821 6.425 7.121.616 3.3-.792 6.861-3.52 8.859-1.32 1.042-2.993 1.65-4.665 1.823-.88.087-1.672 0-2.465 0l-2.464-.173.264-.26c.176 1.475.44 3.039.528 4.602a9.25 9.25 0 01-1.232 4.603c-1.584 2.866-4.84 4.603-8.097 4.516-3.257 0-6.425-1.91-7.922-4.777a8.758 8.758 0 01-1.056-4.69c.176-1.563.44-3.126.616-4.69l.176.175-3.344.608c-1.145.173-2.377.26-3.52 0a9.448 9.448 0 01-5.81-3.648zm.264-.174c1.32 1.824 3.345 3.04 5.545 3.474 1.232.174 2.288.087 3.433-.087l3.432-.608.44-.087-.088.522c-.088 1.476-.352 3.126-.44 4.602 0 1.477.44 2.953 1.144 4.169 1.497 2.519 4.401 3.908 7.13 3.821 2.728-.087 5.28-1.737 6.425-3.995.528-1.215.792-2.431.704-3.647 0-.434-.176-1.303-.352-2.084l-.44-2.345-.528-2.519h6.513c.264 0 .616 0 .88-.087 1.144-.086 2.288-.52 3.168-1.302 1.76-1.477 2.729-3.822 2.289-6.08-.44-2.17-2.112-4.081-4.313-4.69-1.056-.433-2.2-.433-3.344-.173l-.264.087c.175-.087.088 0 .088 0h-.265l-.616.174-1.232.347-2.376.608-3.873 1.042.616-3.734.792-4.603c.176-1.13.088-2.258-.352-3.387-.792-2.258-2.904-4.082-5.457-4.43-2.552-.52-5.369.522-7.04 2.693-.881 1.042-1.41 2.345-1.673 3.734-.088.695-.088 1.303-.088 2.171l.088 2.345v.695h-.616c-.88 0-1.849.087-2.729.087-.792 0-1.584.174-2.464.434-1.584.521-3.08 1.65-4.137 3.04-.968 1.39-1.496 3.126-1.496 4.863 0 1.737.528 3.474 1.496 4.95z" fill="#E29700"/></g><defs><clipPath id="clip0_419_13255"><path fill="#fff" d="M0 0h94v68H0z"/></clipPath></defs></svg>