<svg width="76" height="57" fill="none" xmlns="http://www.w3.org/2000/svg"><path d="M56.758 34.608C67.243 21.978 68.846 8.203 66.817 5.64 65.44 3.973 45.168-1.076 22.615 21.298c-9.673 9.56-15.273 28.91-13.52 30.8 4.53 4.9 33.2-.032 47.662-17.49z" fill="url(#paint0_linear_419_13551)"/><g opacity=".4"><g opacity=".9"><path d="M57.211 12.528l-1.272.004c-.424.002-.848.003-1.372.03-.524.026-1.147.078-1.896.056A51.192 51.192 0 0042.4 14.371c-.898.227-1.895.48-2.767.807-.897.227-1.869.58-2.74.907-.873.327-1.745.654-2.517.956-.772.301-1.545.603-2.192.98-.672.276-1.32.652-1.793.878-.573.252-1.021.578-1.394.778-.748.402-1.196.727-1.196.727s.448-.325 1.17-.827c.348-.3.822-.526 1.37-.877.547-.351 1.194-.727 1.867-1.004.622-.476 1.394-.777 2.141-1.18.748-.4 1.62-.728 2.492-1.055.872-.327 1.744-.654 2.74-.907.972-.352 1.87-.58 2.867-.832.897-.227 1.894-.48 2.816-.608.923-.127 1.82-.355 2.743-.482a44.596 44.596 0 014.788-.365c.649.048 1.272-.004 1.821.069.55.073 1.073.046 1.397.07.749.023 1.198.121 1.198.121z" fill="url(#paint1_linear_419_13551)"/><path d="M43.827 22.922s-.324-.024-.873-.097c-.649-.048-1.397-.07-2.47-.117-.524.027-1.048.053-1.696.005l-1.87.156c-1.248.104-2.694.258-4.09.612-1.42.254-2.791.707-4.087 1.036-.698.177-1.271.428-1.844.68-.573.25-1.171.402-1.644.628-1.047.477-1.919.805-2.466 1.155-.773.302-1.046.478-1.046.478s.373-.2.92-.552c.548-.35 1.395-.778 2.441-1.255a36.363 36.363 0 013.663-1.459c1.37-.453 2.766-.807 4.162-1.16 1.42-.255 2.867-.409 4.214-.538 1.346-.129 2.544-.008 3.517.064.973.071 1.772.293 2.321.366.524-.026.848-.002.848-.002z" fill="url(#paint2_linear_419_13551)"/><path d="M32.884 32.912s-1.023.153-2.594.233c-.848.003-1.67.105-2.619.133-.947.028-1.995.082-3.017.235-2.12.43-4.137 1.26-5.73 2.088-1.52.704-2.566 1.181-2.566 1.181s.995-.677 2.49-1.48c.746-.401 1.668-.953 2.64-1.305.473-.226 1.07-.378 1.544-.604l1.595-.404c1.122-.178 2.17-.232 3.117-.26.948-.028 1.822.07 2.67.066 1.496.046 2.47.117 2.47.117z" fill="url(#paint3_linear_419_13551)"/><path d="M23.105 41.223s-.673.277-1.645.63c-.971.351-2.342.805-3.587 1.333-1.271.428-2.616.981-3.613 1.234-.972.352-1.67.529-1.67.529s.673-.277 1.619-.729c.947-.452 2.292-1.005 3.537-1.533.698-.177 1.271-.428 1.969-.605l1.695-.43 1.695-.429z" fill="url(#paint4_linear_419_13551)"/><path d="M28.127 36.345s.05.2.052.623c.002.424.028.948.006 1.696-.07 1.398-.34 3.27-.907 5.217-.296.924-.667 1.973-1.188 2.847-.496.975-1.167 1.675-1.639 2.325-1.068 1.226-1.814 2.052-1.814 2.052s.62-.9 1.564-2.2c.472-.65 1.018-1.425 1.44-2.275.421-.85.817-1.799 1.114-2.723.592-1.847.96-3.744 1.23-5.192.148-.674.195-1.323.22-1.647a3.298 3.298 0 00-.078-.723z" fill="url(#paint5_linear_419_13551)"/><path d="M37.932 28.555s.175.274.302.772c.126.499.328 1.296.381 2.344.027.524.054 1.047-.02 1.596.052.624-.02 1.173-.168 1.847-.195 1.323-.39 2.645-.885 4.044-.148.674-.495 1.398-.642 2.072-.247.7-.52 1.3-.867 2.024-.272.6-.644 1.224-.917 1.824-.272.6-.57 1.1-.868 1.599-.297.5-.495.974-.818 1.374-.224.375-.447.75-.696 1.026-.397.525-.62.9-.62.9s.223-.375.495-.975l.596-1c.223-.375.421-.85.719-1.349.347-.724.645-1.224.917-1.824l.817-1.799c.273-.6.52-1.298.767-1.998a46.6 46.6 0 00.668-1.972 40.18 40.18 0 00.91-3.945c.048-.648.22-1.223.169-1.846.073-.55.046-1.073.02-1.597-.029-.948-.031-1.796-.158-2.294a4.615 4.615 0 00-.102-.823z" fill="url(#paint6_linear_419_13551)"/><path d="M46.789 20.793l.05.2.152.598c.126.498.303 1.196.431 2.118.128.923.18 1.97.26 3.118.078 1.147.082 2.42.086 3.691.004 1.273-.091 2.57-.212 3.768-.121 1.197-.367 2.32-.538 3.32l-.295 1.347c-.099.45-.222.8-.371 1.049-.273.6-.421.85-.421.85s.123-.35.296-.924c.149-.25.173-.575.271-1.024.124-.35.122-.774.195-1.323.099-.45.172-.998.245-1.547.073-.55.046-1.073.094-1.722.12-1.197.117-2.47.138-3.642.091-2.57.009-4.99-.047-6.885-.028-.948-.105-1.67-.132-2.194-.027-.524-.202-.798-.202-.798z" fill="url(#paint7_linear_419_13551)"/><path d="M55.273 14.503l.15.175c.125.074.25.148.325.447.15.175.227.474.302.773l.278 1.096c.103.823.256 1.846.309 2.893.053 1.048.057 2.32-.064 3.518l-.362 3.593c-.146 1.098-.392 2.221-.589 3.12a66.03 66.03 0 01-.913 3.096s.024-.324.197-.899c.173-.574.195-1.322.392-2.221s.343-1.997.39-3.07c.145-1.098.266-2.295.287-3.468.121-1.198.142-2.37.089-3.418a18.25 18.25 0 00-.11-2.943c.074-.549-.027-.948-.003-1.272l-.203-.797c-.05-.2-.2-.374-.225-.474-.15-.174-.25-.149-.25-.149z" fill="url(#paint8_linear_419_13551)"/><path d="M62.166 9.047s.125.075.3.349c.176.274.252.573.378 1.071.227.897.456 2.219.56 3.466.104 1.247.133 2.619.061 3.592-.071.973-.094 1.721-.094 1.721s-.052-.623-.205-1.646c-.127-.922-.256-2.269-.36-3.516-.13-1.346-.233-2.593-.36-3.516-.127-.498-.128-.922-.179-1.122l-.101-.399c.025.1 0 0 0 0z" fill="url(#paint9_linear_419_13551)"/><path d="M64.08 7.393s-.848.003-2.17-.193a25.566 25.566 0 00-4.766-.383c-1.697.005-3.567.16-4.863.49l-1.695.429-.598.151s.2-.05.573-.25a7.31 7.31 0 011.644-.63l2.393-.606c.823-.103 1.745-.23 2.693-.258 1.796-.031 3.543.163 4.791.483.575.173 1.024.271 1.498.47l.5.297z" fill="url(#paint10_linear_419_13551)"/></g><path d="M13.727 50.285s.621-.9 1.864-2.276a150.829 150.829 0 015.37-5.605c2.313-2.177 5.049-4.78 8.333-7.31 1.593-1.253 3.31-2.43 4.877-3.783 1.567-1.352 3.135-2.704 4.651-4.256 1.542-1.451 3.033-3.102 4.726-4.38 1.666-1.377 3.509-2.48 5.152-3.534a39.975 39.975 0 004.554-3.382c1.393-1.202 2.561-2.453 3.88-3.53 1.219-1.051 2.588-1.929 3.584-2.606 1.095-.702 1.966-1.453 2.687-1.954.797-.626 1.468-1.327 2.315-1.754 1.12-.602 1.074.47.377 1.072-.074.125-.174.15-.348.3-.373.201-.722.502-.996.677l-1.12.602a33.35 33.35 0 00-2.514 1.804c-1.07.802-2.265 1.53-3.484 2.581-1.219 1.052-2.412 2.203-3.78 3.504-1.368 1.302-2.986 2.455-4.728 3.533-1.643 1.053-3.46 2.256-5.053 3.508-1.692 1.278-3.134 2.705-4.65 4.256-1.517 1.552-3.16 3.029-4.726 4.38-1.667 1.378-3.385 2.556-4.977 3.808a142.758 142.758 0 00-8.259 7.186 41.843 41.843 0 00-3.158 3.029c-.945.876-1.816 1.627-2.487 2.327-.696.601-1.194 1.152-1.642 1.477a.787.787 0 00-.448.326z" fill="url(#paint11_linear_419_13551)"/></g><path opacity=".2" d="M56.752 24.107c-.047 1.073-.193 2.17-.363 3.593-.12 1.198-.466 2.346-.663 3.245-.468 1.922-.987 3.221-.987 3.221-.273.6-.895 1.076-1.444 1.003-.324-.024-.549-.073-.7-.248-.15-.174-.225-.473-.201-.797l.197-.899c.123-.35.122-.774.22-1.223l.197-.899c.097-.873.268-1.871.414-2.97.196-1.322.242-2.395.288-3.468.047-1.072.168-2.27.09-3.417l.023-.325c-.028-.947-.03-1.796-.108-2.519-.05-.2-.1-.399-.052-.623-.1.025-.174.15-.273.175-1.294 1.177-2.812 2.304-4.903 3.683l-1.17.827-.252-.997-.05-.2a16 16 0 002.09-1.378c1.743-1.078 3.36-2.231 4.728-3.533.597-.575 1.12-1.026 1.716-1.602l.076.3c.15.174.127.498.202.797.076.3.078.723.178 1.122.103.823.156 1.87.11 2.943.053 1.048-.068 2.245-.089 3.418-.021 1.172-.142 2.37-.288 3.468-.146 1.098-.292 2.196-.39 3.07-.196.898-.219 1.647-.391 2.221-.074.549-.197.899-.197.899s.445-1.174.913-3.096c.197-.9.468-1.923.589-3.12.146-1.099.267-2.296.362-3.594.121-1.198.042-2.345.064-3.517-.002-.424-.103-.823-.079-1.147.052.623.104 1.247.13 1.77.055 1.472.034 2.644.013 3.817zm6.813-6.608c-.071.974-.094 1.722-.094 1.722s-.052-.623-.205-1.646c-.127-.922-.256-2.269-.36-3.516-.13-1.346-.233-2.593-.36-3.516-.127-.498-.128-.922-.179-1.122-.348.3-.796.626-1.17.827-1.07.802-2.265 1.529-3.484 2.58-.696.602-1.393 1.202-2.064 1.903.025.1.15.174.176.274.15.174.2.373.25.573.424-.426.772-.726 1.12-1.026.796-.627 1.593-1.253 2.314-1.754.175-.15.448-.326.622-.476l.26 3.117c.129 1.347.233 2.594.36 3.516.128.923.205 1.646.205 1.646.05.2.076.3.201.373.176.274.625.373 1.024.272.598-.152 1.095-.702 1.168-1.251 0 0 .122-.774.169-1.847.022-.748-.007-2.12-.087-3.691l-.05-.2c.178 1.122.182 2.394.184 3.242zM46.552 40.38c.074-.125.049-.225.123-.35.099-.45.297-.924.395-1.373l-.025-.1c.246-1.123.466-2.346.612-3.444.121-1.198.217-2.495.188-3.867.045-1.497-.034-2.644-.087-3.692.022-.748-.055-1.471-.107-2.095.027.524.028.948.055 1.472.078 1.147.083 2.42.087 3.691.004 1.273-.092 2.57-.213 3.768-.12 1.197-.366 2.32-.538 3.32l-.295 1.347c-.098.45-.222.799-.37 1.049-.273.6-.422.85-.422.85s.124-.35.296-.924c.15-.25.173-.575.272-1.024.123-.35.122-.774.195-1.323.098-.45.171-.998.244-1.547.073-.55.047-1.073.094-1.722.121-1.197.117-2.47.139-3.642.091-2.57.008-4.99-.048-6.885-.028-.948-.105-1.67-.131-2.195l-.076-.299c-.996.677-1.892 1.329-2.887 2.005-1.692 1.278-3.135 2.704-4.651 4.256-.423.425-.946.876-1.343 1.401l.076.3.177.697c.248-.275.522-.45.77-.726 1.443-1.426 2.885-2.853 4.378-4.08.348-.3.796-.626 1.17-.827.025.1.002.848.002.848.108 2.52.14 4.74.122 6.76.004 1.272-.117 2.47-.138 3.642-.024.325-.073.55-.097.874-.024.324-.073.549-.097.873l-.098.45c-.024.324-.048.648-.172.998l-.098.45a5.013 5.013 0 01-.122.773c-.075.125-.024.324-.099.45-.074.124-.023.324-.098.449l-.296.923c-.124.35-.048.65.127.923.15.174.375.223.6.273.549.072 1.296-.329 1.569-.929l.57-1.099c.049-.225.198-.475.247-.7zM63.508 7.222c.124.075.224.05.25.15a8.733 8.733 0 011.965-1.454c.2-.05.274-.175.4-.101-.4-.323-1.05-.37-1.97.18-.549.352-1.096.703-1.519 1.128.399-.1.624-.052.873.097zm-38.094 14.64c.025.1.025.1.15.175.3.348.85.421 1.397.07l1.295-.752c.373-.201.847-.427 1.295-.753.573-.251 1.12-.602 1.793-.879.573-.25 1.245-.527 2.192-.98.498-.126.872-.327 1.345-.553.399-.1.772-.301.972-.352l.772-.302c.573-.251 1.27-.428 1.969-.605.897-.227 1.77-.554 2.766-.807 3.19-.808 6.83-1.519 9.973-1.678.324.024.623-.052.848-.003.2-.05.424-.002.723-.077l-.1.025c-.422.425-.945.876-1.393 1.202-1.119 1.026-2.463 2.003-4.38 3.232l-1.095.702c-1.27.852-2.539 1.704-3.783 2.656-.573.251-1.347.13-2.32.058-1.098-.147-2.37-.143-3.742-.113-1.346.129-2.892.308-4.413.588-1.496.379-2.892.732-4.362 1.211-1.27.428-2.616.981-3.736 1.584-1.146.502-1.968 1.029-2.615 1.405l-.921.552c-.548.35-.895 1.075-.669 1.549.026.1.05.199.15.174.3.348.75.446 1.323.195l.947-.452c.572-.251 1.42-.678 2.49-1.056.474-.226 1.072-.378 1.645-.629.3-.075.673-.276.972-.352.299-.076.573-.251.772-.302a27.46 27.46 0 013.988-1.01c1.321-.23 2.742-.483 3.89-.562.324.024.523-.026.822-.102.325.024.624-.052 1.048-.054.524-.026 1.047-.053 1.597.02.1-.025.224.05.324.024-.945.876-1.79 1.727-2.437 2.527-1.516 1.552-2.884 2.853-4.476 4.106-.448.325-.97.776-1.419 1.102a9.542 9.542 0 01-1.397-.07l-2.769-.041c-1.073-.047-2.22.032-3.317.31l-1.794.454c-.598.152-1.171.403-1.744.655-1.046.477-1.993.929-2.814 1.456a53.465 53.465 0 00-2.564 1.604c-.548.351-.795 1.05-.669 1.549.025.1.025.1.15.174.3.348.85.421 1.323.195l2.54-1.28c1.62-.729 3.537-1.533 5.357-1.888.923-.128 1.746-.23 2.694-.258l1.471-.055c-2.637 2.154-5.075 4.257-7.04 6.134l-.598.152-1.196.303c-.698.177-1.37.453-2.043.73-1.645.629-2.99 1.182-3.737 1.584-1.046.477-1.694.853-1.694.853-.547.351-.92.976-.793 1.474.025.1.05.2.175.274.276.249.625.373 1.124.246 0 0 .698-.177 1.67-.529a93.567 93.567 0 012.815-1.032c-.92.976-1.84 1.952-2.585 2.777-1.318 1.501-1.938 2.401-1.938 2.401-.298.5-.271 1.024-.096 1.298 0 0 .125.074.15.174.4.323 1.098.146 1.62-.305l.598-.575.522-.451c.348-.3.696-.6 1.12-1.026l2.486-2.328 3.059-3.003c1.293-1.177 2.66-2.479 4.228-3.83a33.71 33.71 0 01-.985 4.069c-.296.923-.618 1.748-.99 2.373l-1.265 2.124-1.565 2.2c-.297.5-.396.95-.095 1.298 0 0 .025.1.15.174.4.323 1.098.146 1.62-.305 0 0 .846-.85 1.989-2.201.572-.676 1.217-1.476 1.813-2.476.52-.875.892-1.923 1.337-3.097.542-2.047.86-4.144.93-5.541-.001-.424-.003-.848.021-1.172.249-.276.622-.477.87-.752l1.245-.952c1.244-.952 2.514-1.804 3.832-2.88.523-.451 1.045-.902 1.667-1.378.05.2.002.424.052.623-.073.55-.046 1.073-.12 1.622-.023.325-.047.649-.17.999-.05.224-.1.449-.049.648-.27 1.448-.49 2.671-.935 3.845-.099.45-.222.799-.445 1.174-.05.224-.198.474-.248.699-.098.45-.321.824-.445 1.174-.149.25-.198.474-.247.7-.124.349-.247.698-.496.974-.149.25-.297.5-.321.824-.124.35-.347.724-.496.974l-.298.5c-.05.225-.198.475-.272.6-.15.25-.198.474-.347.724l-.596 1-.52.875c-.199.474-.197.898-.022 1.172l.375.223c.474.198 1.247-.103 1.644-.629l.771-.725.695-1.025c.249-.276.447-.75.67-1.125 0 0 .347-.725.422-.85.223-.374.421-.849.644-1.224l.298-.5c.223-.375.421-.85.62-1.324.048-.224.197-.474.272-.6l.594-1.423c.05-.225.198-.475.247-.7.198-.474.396-.949.494-1.398.42-1.273.69-2.721.935-4.268l.143-1.947c-.026-.523.047-1.073-.005-1.696-.026-.1-.076-.299-.002-.424.002.424.028.948.055 1.472.052.623-.021 1.172-.169 1.846-.195 1.323-.39 2.645-.885 4.044-.147.674-.494 1.398-.642 2.072-.247.7-.52 1.3-.866 2.024-.273.6-.645 1.224-.917 1.824-.273.6-.57 1.1-.868 1.599-.298.5-.496.974-.819 1.375-.223.375-.447.75-.695 1.025-.398.525-.62.9-.62.9s.222-.375.495-.975l.595-1c.224-.374.422-.849.72-1.349.147-.674.445-1.174.717-1.773l.818-1.799c.272-.6.52-1.299.766-1.998.247-.7.495-1.398.667-1.973a39.9 39.9 0 00.91-3.944c.049-.649.221-1.223.17-1.846.072-.55.046-1.073.02-1.597-.029-.948-.032-1.796-.158-2.294l-.076-.3c-1.119 1.027-2.138 2.028-3.283 2.954-1.667 1.378-3.384 2.556-4.977 3.808a9.121 9.121 0 00-1.492 1.227c.001.424.028.948.005 1.697-.07 1.397-.339 3.268-.906 5.216-.296.924-.667 1.973-1.188 2.847-.521.875-1.192 1.576-1.664 2.226-1.07 1.226-1.815 2.051-1.815 2.051s.621-.9 1.565-2.2c.472-.65 1.018-1.425 1.44-2.275.42-.85.817-1.798 1.113-2.722.593-1.848.96-3.745 1.23-5.193.148-.674.121-1.197.245-1.547-2.463 2.003-4.702 4.056-6.592 5.808a41.843 41.843 0 00-3.158 3.029c-.945.876-1.816 1.627-2.487 2.328-.696.6-1.194 1.151-1.642 1.477-.348.3-.622.476-.622.476s.621-.9 1.864-2.276a150.846 150.846 0 015.37-5.605l.522-.45c-.971.352-2.342.805-3.587 1.333-1.271.428-2.617.981-3.613 1.234-.972.352-1.67.529-1.67.529s.647-.376 1.594-.828c.946-.453 2.291-1.006 3.537-1.533.698-.177 1.27-.429 1.969-.605l1.695-.43.498-.126c2.139-2.028 4.551-4.23 7.288-6.41.896-.651 1.866-1.428 2.762-2.079-.424.001-1.047.053-1.77.13-.848.003-1.671.106-2.619.134-.948.028-1.995.08-3.018.234-2.119.43-4.136 1.26-5.73 2.089-1.52.703-2.566 1.18-2.566 1.18s.996-.676 2.49-1.48c.747-.4 1.668-.953 2.64-1.305.473-.226 1.071-.378 1.545-.604l1.595-.404c1.122-.178 2.17-.231 3.117-.26.948-.027 1.821.07 2.67.067.748.022 1.396.07 1.82.069.623-.476 1.344-.977 1.941-1.553 1.567-1.352 3.135-2.704 4.651-4.256a65.785 65.785 0 014.452-4.205c-.1.026-.2.05-.325-.024-.549-.073-1.297-.095-2.37-.142-.523.027-1.047.054-1.696.006l-1.87.155c-1.247.104-2.694.259-4.09.612-1.42.254-2.79.708-4.087 1.036-.698.177-1.27.428-1.844.68-.573.251-1.17.403-1.644.629-1.046.477-1.918.804-2.466 1.155-.772.302-1.046.477-1.046.477s.373-.2.921-.552c.548-.35 1.395-.777 2.44-1.255a36.334 36.334 0 013.663-1.458c1.37-.454 2.766-.807 4.162-1.161 1.421-.254 2.867-.408 4.214-.537 1.347-.13 2.544-.009 3.517.063.974.072 1.773.294 2.322.367.1-.025.224.049.324.024.074-.125.174-.15.274-.176 1.667-1.377 3.509-2.48 5.152-3.534a39.987 39.987 0 004.554-3.382c1.219-1.051 2.413-2.203 3.532-3.23-.2.051-.424.002-.848.004a27.02 27.02 0 00-1.372.029c-.524.027-1.148.079-1.896.056a51.202 51.202 0 00-10.272 1.754c-.897.228-1.894.48-2.766.807-.897.228-1.869.58-2.74.907-.873.327-1.745.654-2.517.956-.773.302-1.545.604-2.192.98-.673.277-1.32.653-1.793.879-.573.251-1.021.577-1.395.778-.747.401-1.195.727-1.195.727s.448-.326 1.17-.827c.348-.3.821-.526 1.369-.877s1.195-.728 1.868-1.004c.597-.576 1.369-.878 2.116-1.28.747-.4 1.619-.728 2.491-1.055.872-.327 1.744-.654 2.741-.907.972-.352 1.869-.58 2.866-.832.897-.228 1.894-.48 2.817-.608.922-.128 1.82-.355 2.742-.483a44.596 44.596 0 014.788-.364c.65.047 1.273-.004 1.822.069.549.073 1.072.046 1.397.07.324.024.549.073.773.122.1-.025.175-.15.249-.275 1.219-1.052 2.588-1.93 3.584-2.606 1.095-.702 1.966-1.453 2.688-1.954.1-.025.174-.15.348-.3a47.701 47.701 0 01-1.847-.17c-1.123-.245-2.87-.439-4.666-.408-1.696.005-3.566.16-4.862.49l-1.695.429-.599.151s.2-.05.573-.25a7.34 7.34 0 011.645-.63l2.392-.606c.823-.103 1.746-.23 2.694-.258 1.796-.031 3.543.163 4.79.483.225.05.35.124.475.198-.324-.024-.674-.147-1.023-.27-1.473-.37-3.22-.564-5.016-.534-1.047.054-1.995.082-2.818.184-.823.103-1.72.33-2.617.557-.798.202-1.446.579-1.944.705l-.622.476c-.573.251-.92.976-.893 1.5.025.1.05.199.2.373.276.249.65.472 1.124.246l.672-.277c.4-.1.898-.227 1.496-.379 1.097-.277 2.768-.383 4.564-.413a20.71 20.71 0 013.992.261c-.274.176-.548.351-.722.501-.274.176-.622.476-.896.652-.822.526-1.618 1.152-2.489 1.904l-.224-.05c-.225-.049-.55-.073-.973-.071l-.524.026c-.424.002-.973-.071-1.497-.045l-.524.027c-1.371.03-3.042.135-4.888.39-.822.102-1.745.23-2.642.457l-.3.076c-.897.228-1.82.355-2.716.583-.997.252-1.97.605-2.867.832-.697.177-1.37.454-2.043.73l-.772.302-.573.251-2.018.83c-.946.452-1.719.754-2.266 1.105-.847.427-1.494.803-1.968 1.029a6.213 6.213 0 00-1.468.902l-1.195.728c-.673.276-.92.976-.694 1.449zM66.076 6.89c-.075.125-.174.15-.348.3-.374.2-.722.501-.996.677l-1.12.602c-.474.226-.822.527-1.27.852.175.274.251.573.377 1.072l.1-.025c.1-.026.274-.176.374-.201.274-.176.473-.226.747-.402.274-.175.547-.35.796-.626l.249-.275c.174-.15.373-.2.448-.326.77-.726 1.141-1.775.865-2.447.175.274.026.524-.222.799z" fill="url(#paint12_linear_419_13551)"/><g opacity=".7"><path opacity=".111" d="M52.095 35.05c11.568-9.616 17.24-21.982 12.483-27.78-4.759-5.796-18.094-2.735-29.788 6.807-11.568 9.616-17.116 22.056-12.332 27.953 4.858 5.771 18.068 2.636 29.637-6.98z" fill="#5B9B10"/><path opacity=".222" d="M51.118 33.705c10.797-8.89 16.324-20.158 12.067-25.233-4.283-5.175-16.546-2.067-27.343 6.823C25.044 24.185 19.793 35.7 23.95 40.802c4.257 5.075 16.37 1.793 27.168-7.097z" fill="#68A81E"/><path opacity=".333" d="M50.116 32.262c10.001-8.264 15.407-18.334 11.726-22.813C58.16 4.971 46.92 7.926 36.918 16.19c-10.001 8.264-15.006 18.657-11.325 23.135 3.607 4.604 14.522 1.2 24.523-7.063z" fill="#75B42B"/><path opacity=".444" d="M49.138 30.917c9.206-7.638 14.49-16.51 11.31-20.267-3.205-3.856-13.373-.855-22.578 6.783s-13.965 16.908-10.86 20.79c3.18 3.756 12.824.357 22.128-7.306z" fill="#82C138"/><path opacity=".556" d="M48.037 29.5c8.434-6.911 13.598-14.586 10.994-17.746-2.605-3.16-11.725-.211-20.134 6.8C30.463 25.466 26 33.812 28.604 36.972c2.48 3.085 11.025-.46 19.433-7.472z" fill="#90CD46"/><path opacity=".667" d="M47.059 28.155c7.637-6.286 12.68-12.763 10.552-15.3-2.004-2.463-10.176.457-17.714 6.717-7.638 6.286-11.856 13.509-9.852 15.972 2.029 2.563 9.376-1.103 17.014-7.389z" fill="#9DDA53"/><path opacity=".778" d="M46.054 26.71c6.841-5.66 11.664-10.914 10.136-12.755-1.527-1.84-8.527 1.1-15.37 6.76-6.84 5.66-10.812 11.76-9.384 13.625 1.627 1.816 7.776-1.97 14.618-7.63z" fill="#AAE660"/><path opacity=".889" d="M45.076 25.367c6.07-4.934 10.747-9.09 9.82-10.234-.926-1.144-6.978 1.769-12.95 6.677-5.97 4.909-9.745 10.11-8.819 11.254.827 1.17 5.879-2.763 11.95-7.697z" fill="#B7F36E"/><path d="M43.974 23.952c5.275-4.308 9.83-7.266 9.38-7.788-.451-.523-5.331 2.412-10.506 6.694s-8.704 8.36-8.353 8.907c.451.523 4.33-3.431 9.48-7.813z" fill="#C4FF7B"/></g><defs><linearGradient id="paint0_linear_419_13551" x1="61.054" y1="9.641" x2="10.133" y2="53.952" gradientUnits="userSpaceOnUse"><stop stop-color="#478300"/><stop offset=".487" stop-color="#66A400"/><stop offset="1" stop-color="#83C200"/></linearGradient><linearGradient id="paint1_linear_419_13551" x1="31.747" y1="25.236" x2="53.373" y2="7.387" gradientUnits="userSpaceOnUse"><stop stop-color="#BDCA7B"/><stop offset=".373" stop-color="#B5C672"/><stop offset=".977" stop-color="#9EBA5A"/><stop offset="1" stop-color="#9DB959"/></linearGradient><linearGradient id="paint2_linear_419_13551" x1="25.024" y1="31.597" x2="40.682" y2="18.673" gradientUnits="userSpaceOnUse"><stop stop-color="#BDCA7B"/><stop offset=".373" stop-color="#B5C672"/><stop offset=".977" stop-color="#9EBA5A"/><stop offset="1" stop-color="#9DB959"/></linearGradient><linearGradient id="paint3_linear_419_13551" x1="18.582" y1="39.822" x2="30.672" y2="29.842" gradientUnits="userSpaceOnUse"><stop stop-color="#BDCA7B"/><stop offset=".373" stop-color="#B5C672"/><stop offset=".977" stop-color="#9EBA5A"/><stop offset="1" stop-color="#9DB959"/></linearGradient><linearGradient id="paint4_linear_419_13551" x1="13.758" y1="46.563" x2="22.061" y2="39.71" gradientUnits="userSpaceOnUse"><stop stop-color="#BDCA7B"/><stop offset=".373" stop-color="#B5C672"/><stop offset=".977" stop-color="#9EBA5A"/><stop offset="1" stop-color="#9DB959"/></linearGradient><linearGradient id="paint5_linear_419_13551" x1="20.049" y1="48.138" x2="30.881" y2="39.198" gradientUnits="userSpaceOnUse"><stop stop-color="#BDCA7B"/><stop offset=".373" stop-color="#B5C672"/><stop offset=".977" stop-color="#9EBA5A"/><stop offset="1" stop-color="#9DB959"/></linearGradient><linearGradient id="paint6_linear_419_13551" x1="28.104" y1="44.889" x2="42.202" y2="33.253" gradientUnits="userSpaceOnUse"><stop stop-color="#BDCA7B"/><stop offset=".373" stop-color="#B5C672"/><stop offset=".977" stop-color="#9EBA5A"/><stop offset="1" stop-color="#9DB959"/></linearGradient><linearGradient id="paint7_linear_419_13551" x1="41.089" y1="35.224" x2="51.821" y2="26.366" gradientUnits="userSpaceOnUse"><stop stop-color="#BDCA7B"/><stop offset=".373" stop-color="#B5C672"/><stop offset=".977" stop-color="#9EBA5A"/><stop offset="1" stop-color="#9DB959"/></linearGradient><linearGradient id="paint8_linear_419_13551" x1="50.166" y1="27.801" x2="60.056" y2="19.638" gradientUnits="userSpaceOnUse"><stop stop-color="#BDCA7B"/><stop offset=".373" stop-color="#B5C672"/><stop offset=".977" stop-color="#9EBA5A"/><stop offset="1" stop-color="#9DB959"/></linearGradient><linearGradient id="paint9_linear_419_13551" x1="60.46" y1="16.086" x2="65.193" y2="12.179" gradientUnits="userSpaceOnUse"><stop stop-color="#BDCA7B"/><stop offset=".373" stop-color="#B5C672"/><stop offset=".977" stop-color="#9EBA5A"/><stop offset="1" stop-color="#9DB959"/></linearGradient><linearGradient id="paint10_linear_419_13551" x1="52.65" y1="11.279" x2="61.566" y2="3.919" gradientUnits="userSpaceOnUse"><stop stop-color="#BDCA7B"/><stop offset=".373" stop-color="#B5C672"/><stop offset=".977" stop-color="#9EBA5A"/><stop offset="1" stop-color="#9DB959"/></linearGradient><linearGradient id="paint11_linear_419_13551" x1="12.874" y1="49.426" x2="66.247" y2="5.373" gradientUnits="userSpaceOnUse"><stop stop-color="#BDCA7B"/><stop offset=".195" stop-color="#B5C672"/><stop offset=".512" stop-color="#9EB95A"/><stop offset=".91" stop-color="#7AA633"/><stop offset="1" stop-color="#71A129"/></linearGradient><linearGradient id="paint12_linear_419_13551" x1="63.405" y1="32.092" x2="14.008" y2="25.663" gradientUnits="userSpaceOnUse"><stop stop-color="#fff"/><stop offset=".017" stop-color="#F6F9F2"/><stop offset=".117" stop-color="#C4DAAB"/><stop offset=".212" stop-color="#9ABF6F"/><stop offset=".298" stop-color="#79AA40"/><stop offset=".373" stop-color="#629B1F"/><stop offset=".436" stop-color="#53920A"/><stop offset=".478" stop-color="#4E8F03"/><stop offset=".524" stop-color="#53920A"/><stop offset=".592" stop-color="#619B1F"/><stop offset=".675" stop-color="#79AA40"/><stop offset=".768" stop-color="#99BF6E"/><stop offset=".871" stop-color="#C3D9AA"/><stop offset=".98" stop-color="#F5F9F1"/><stop offset="1" stop-color="#fff"/></linearGradient></defs></svg>