<svg width="24" height="23" fill="none" xmlns="http://www.w3.org/2000/svg"><path d="M11.87 10.694a73.922 73.922 0 013.216-3.166A56.12 56.12 0 0119 4.232c-1.348 1.215-2.61 2.472-3.87 3.773-.957.998-1.826 2.039-2.74 3.08-.216.26-.434.52-.608.737-.348.433-.696.91-1.043 1.344-.435.564-.826 1.084-1.261 1.648-.305.39-.565.78-.87 1.214a67.52 67.52 0 00-2.739 4.424l-2-.087c1-1.518 2.783-3.6 3.913-4.987.261-.39.565-.737.913-1.128.435-.52.87-1.084 1.348-1.604l1.174-1.301.652-.65zM8.217 13.86C2.522 13.208.826 8.828 2.435 8.828c0 0-2.566-3.643-1.609-5.118.913-1.387 1.87.13 1.956.304 0-.26-.086-2.775 1.348-3.513 1.522-.78 2.087 3.383 2.087 3.383S9.304.242 9.74 5.663c-.304 1.301-.391 3.08-.043 5.29l-1.48 2.907zm5.478-.304c1.087.087 2.261.087 3.174-.087h.044c5.39-.65 1.173 2.559 1.173 2.559s6.13 1.128 4.479 2.645c-1.696 1.518-4.696.824-4.696.824s1.74 1.475.74 2.299c-1 .78-3.74-1.431-3.74-1.431.435 2.645-4.696-.607-4.826-4.987l3.652-1.822z" fill="#488C1C"/><path d="M12.478 4.232s1.478-2.645 2.957-3.47l.39.608c-1.825 3.47-.782 6.158-.782 6.158a73.631 73.631 0 00-3.217 3.166c-.218.217-.435.477-.652.694L10 12.688c-.174-.606-.261-1.17-.348-1.734-.304-2.255-.217-4.033.087-5.334.652-2.819 2.348-3.47 2.74-1.388z" fill="#63AA35"/><path d="M12.391 11.084a60.361 60.361 0 012.74-3.079c1.217-1.301 2.521-2.602 3.87-3.773-1.349 1.04-2.653 2.168-3.914 3.296 0 0-1.043-2.689.783-6.158l-.392-.607c.74-.434 1.522-.434 2.13.564 0 0 4.566-2.169 5.74-.651.87 1.778-2.043 4.597-2.043 4.597 5.782 2.038-3.783 5.29-3.783 5.29 1.696 1.865.913 2.603-.609 2.906h-.043c-.957.174-2.13.174-3.174.087a42.246 42.246 0 01-2.957-.347c.348-.434.696-.91 1.044-1.344.217-.26.434-.52.608-.78z" fill="#63AA35"/><path d="M4.174.503c.174-.087.391-.13.565-.044.217.044.348.174.478.304.261.304.435.607.566.954.26.694.434 1.431.565 2.168l-.13-.043c.347-.347.738-.694 1.173-.954.435-.26 1.044-.39 1.478-.043.435.347.61.824.74 1.3.087.521.174.998.174 1.518h-.044c-.13-.477-.26-.954-.478-1.387-.174-.434-.435-.868-.696-.998-.217-.217-.522-.13-.913.087a5.9 5.9 0 00-1 .824l-.739.78-.13-.997a16.014 16.014 0 00-.392-2.081 4.873 4.873 0 00-.348-.955C4.87.633 4.61.46 4.217.59L4.174.503z" fill="#5CB523"/><path d="M8.26 13.946c-1.521-.173-3.043-.65-4.304-1.56-.652-.435-1.217-.955-1.652-1.605-.218-.347-.392-.694-.435-1.085 0-.173 0-.39.087-.563.087-.174.304-.26.522-.26h-.044c-.391-.521-.739-1.128-1.043-1.735C1.086 6.53.826 5.88.695 5.229a2.8 2.8 0 01-.043-1.04c.087-.347.26-.65.521-.868.305-.217.74-.217 1 0 .305.174.522.477.696.738h-.043c0-.651.043-1.345.217-1.995.174-.607.522-1.258 1.13-1.562v.044c-.565.347-.87.997-1 1.604-.087.608-.13 1.301-.13 1.909l.043.824-.434-.694c-.174-.26-.392-.52-.61-.65-.26-.131-.477-.131-.651.043a1.855 1.855 0 00-.261.303.698.698 0 00-.13.39c-.044.26-.044.564.043.868.13.607.391 1.257.696 1.821.304.607.652 1.171 1 1.735l.304.477h-.609c-.13 0-.174.043-.217.087v.39c.043.304.174.65.391.954.391.607.87 1.128 1.478 1.561 1.218.911 2.653 1.475 4.174 1.778z" fill="#36661C"/><path d="M9.782 10.954c-.478.998-1 1.995-1.522 2.95h-.043c0-.304.087-.565.174-.868.087-.26.217-.52.304-.78.13-.218.26-.478.435-.695.174-.217.348-.433.652-.607z" fill="#5CB523"/><path d="M15.043 7.702c1.087.086 2.261.086 3.348 0 1.13-.13 2.26-.304 3.304-.738-1.043.477-2.13.781-3.26.998-1.13.173-2.261.303-3.435.303l.043-.563z" fill="#488C1C"/><path d="M14.913 7.832c-.174-.564-.217-1.128-.217-1.692 0-.563.043-1.084.13-1.604a9.922 9.922 0 011.13-2.993 10.56 10.56 0 00-.87 3.036 9.355 9.355 0 000 1.561c.044.52.175 1.041.349 1.475l-.522.217zm-2.435 3.035c.305.13.696.26 1.044.347.347.087.739.174 1.13.26.74.174 1.478.217 2.26.217-.738.087-1.52.13-2.303.087l-1.174-.13c-.392-.087-.783-.13-1.174-.304l.217-.477zm-.738 0a10.687 10.687 0 01-.566-3.079c-.044-.997.087-2.081.565-2.992-.391.954-.435 1.995-.304 2.992.13.998.434 1.952.826 2.862l-.522.217z" fill="#488C1C"/><path d="M10.087 15.377a7.67 7.67 0 00.609 2.169 8.6 8.6 0 001.217 1.865c.478.52 1.043.997 1.652 1.344.305.174.652.304.87.26.087-.043.13-.043.13-.173.044-.087.044-.26 0-.434l-.13-.78.652.52c.435.303.956.607 1.435.91.478.26 1 .521 1.478.608.26 0 .391 0 .565-.174.087-.087.13-.26.087-.52-.13-.434-.522-.91-.913-1.301l-.652-.607.87.216c.739.174 1.565.26 2.347.174.783-.043 1.609-.26 2.218-.78l.043.043c-.609.564-1.435.824-2.217.954a7.608 7.608 0 01-2.435-.13l.043-.044c.392.39.783.824 1 1.431.087.26.044.608-.173.824a1.005 1.005 0 01-.827.26c-.608-.086-1.13-.346-1.652-.65-.478-.26-.956-.607-1.434-.954l.043-.043c.043.173.043.39 0 .564-.043.216-.217.39-.391.39-.435.087-.783-.087-1.13-.26a6.271 6.271 0 01-1.696-1.518c-.957-1.171-1.61-2.646-1.61-4.164z" fill="#36661C"/><path d="M22.565 18.674c.13-.217.217-.434.13-.607-.13-.13-.304-.26-.521-.348a6.22 6.22 0 00-1.348-.52c-.479-.087-.913-.26-1.392-.347-.478-.13-1-.217-1.434-.303l-1.13-.217.912-.65c.348-.26.696-.565 1-.868.305-.304.522-.737.478-.78 0-.044-.13-.174-.347-.218a1.392 1.392 0 00-.61-.13c-.477-.086-.956-.086-1.434-.13v-.043a8.03 8.03 0 011.435-.13c.217 0 .478 0 .696.087.217.043.478.13.608.346.13.26.044.52-.043.738-.13.217-.261.39-.435.563-.304.39-.652.694-1.043.998v-.087c1 .174 1.956.434 2.913.78.478.174.956.391 1.347.651a1.2 1.2 0 01.479.564c.13.26-.044.52-.261.65zM13.74 13.6c-.262.26-.523.433-.827.65-.26.217-.609.347-.87.52-.304.13-.608.26-.956.39a6.765 6.765 0 01-1 .218v-.044c1.174-.607 2.391-1.214 3.652-1.734z" fill="#5CB523"/><path d="M5.913 20.495h-1l-1.044-.043v-.087c.218-.26.391-.39.522-.477a1.16 1.16 0 01.522-.13c.174 0 .347.043.521.173.174.087.348.26.479.52v.044zm3.912-5.855c.218.26.61.608 1 .825.392.303.827.52 1.218.694.87.39 1.739.737 2.652.997 1.826.52 3.74.867 5.652 1.084-1.913-.087-3.826-.303-5.695-.737-.957-.217-1.913-.477-2.826-.824a9.567 9.567 0 01-1.348-.65 4.606 4.606 0 01-1.261-.911l.608-.477zm-1.304-.043c-.826-.65-1.348-1.388-1.826-2.212a11.91 11.91 0 01-1.087-2.559c-.521-1.778-.739-3.6-.739-5.42.13 1.82.435 3.642 1.087 5.29.304.824.696 1.648 1.174 2.385.522.738 1.13 1.431 1.783 1.865l-.392.65z" fill="#36661C"/><path d="M6.087 10.867c.565-.997 1-2.125 1.391-3.21.348-1.127.652-2.254.826-3.425a23.25 23.25 0 01-.652 3.47c-.348 1.127-.739 2.254-1.26 3.339l-.305-.174zm-.783-2.255a11.882 11.882 0 01-2.13-1.778C2.564 6.14 2 5.36 1.782 4.492c.305.868.87 1.605 1.522 2.212a11.3 11.3 0 002.174 1.605l-.174.303zm1.652 3.904c-.826-.217-1.609-.608-2.304-1.085C4 10.954 3.39 10.347 2.956 9.653c.478.65 1.13 1.215 1.826 1.648.696.39 1.478.694 2.261.868l-.087.347zm6.609 4.379c.696-.39 1.435-.737 2.174-1.04.74-.304 1.479-.651 2.261-.825-.782.217-1.478.607-2.174.954-.695.39-1.391.824-2.043 1.215l-.218-.304zm1.565.435a11.717 11.717 0 002.435 3.599 10.59 10.59 0 01-1.522-1.605 10.477 10.477 0 01-1.26-1.821l.347-.174zm-2.826-.868c.044.65.174 1.344.391 1.995.218.65.522 1.3 1 1.778-.521-.477-.87-1.084-1.174-1.735-.26-.65-.478-1.3-.608-2.038h.391z" fill="#36661C"/><path d="M9.304 3.495c-.565 1.04-.695 2.038-.739 3.035-.043 1.128.13 2.212.348 3.21.13.607.348 1.17.565 1.734l.304-.867a16.754 16.754 0 01-.087-3.903c.044-.26.087-.477.13-.737l-.52-2.472z" fill="#A9C994"/><path d="M23.304.72C22.956.373 22.478.33 22 .373a5.66 5.66 0 00-1.435.303c-.913.304-1.87.694-2.696 1.128l-.39.217-.262-.434c-.174-.174-.348-.347-.478-.434-.174-.043-.304-.087-.478-.043-.348.043-.783.39-1.174.737-.392.39-.74.824-1.044 1.301-.348.434-.652.954-.913 1.431l-.913 1.475-.304-1.692c-.044-.173-.13-.39-.174-.52a1.283 1.283 0 00-.13-.173s-.087 0-.174.086a1.232 1.232 0 00-.435.39c-.478.694-.74 1.649-.913 2.603-.174.954-.174 1.908-.174 2.905 0 .998.13 1.995.217 2.993h-.087c-.478-1.909-.739-3.947-.521-5.985.13-.998.347-1.995.913-2.862.13-.217.304-.434.521-.564.218-.174.522-.304.783-.217.26.043.478.304.609.52.13.217.217.434.26.694h-.13a15.323 15.323 0 012.13-2.862c.435-.39.914-.78 1.566-.91.304-.044.608 0 .87.173.26.173.478.433.651.694h-.087c.914-.434 1.87-.78 2.87-.998.478-.13 1-.173 1.522-.173.478 0 1.043.13 1.391.564h-.087z" fill="#7DC435"/><path d="M12.782 13.99l.522.13c.87.217 1.74.347 2.696.434.478 0 .956 0 1.478-.087.782-.087 1.87-.564 1.826-.91-.043-.088-.565-.13-.826-.174h-1.609c-.304.087-.652.087-.956.13-.74.043-1.435.043-2.174 0l-.957.477z" fill="#C3DAB4"/><path d="M10.783 13.209c.87.043 1.739.13 2.565.13.87 0 1.696.043 2.565-.043.435-.044.826-.087 1.218-.217.39-.087.739-.26.87-.477.13-.174.086-.39-.088-.737s-.435-.651-.739-.954l-.478-.478.695-.26c.74-.26 1.479-.607 2.174-.91.696-.347 1.392-.694 2.044-1.085.304-.217.608-.433.826-.694.217-.26.348-.52.304-.693-.043-.217-.26-.477-.565-.65-.26-.218-.609-.391-.956-.521l-.566-.217.392-.347c.608-.564 1.174-1.258 1.695-1.952.261-.347.435-.737.566-1.127.13-.39.173-.824 0-1.258l.043-.043c.217.39.217.867.087 1.3-.087.434-.304.825-.522 1.215-.435.78-1 1.431-1.652 2.082v-.087c.391.13.74.304 1.087.52.348.217.696.477.783.911.087.434-.13.824-.392 1.128-.174.347-.521.607-.826.824-1.348.91-2.826 1.517-4.348 2.081l.044-.087c.26.348.522.651.739 1.041.217.39.304.911 0 1.258-.26.39-.696.52-1.13.607-.435.087-.87.13-1.305.174-1.739.086-3.435-.13-5.174-.39l.044-.044z" fill="#488C1C"/><path d="M11.304 13.296c.305-.39.609-.737.913-1.128 1.087-1.388 2.218-2.689 3.348-3.99a70.14 70.14 0 011.74-1.951c.564-.65 1.173-1.301 1.738-1.952L19 4.232c-2.609 2.342-5 4.9-7.217 7.59-.348.476-.696.953-1.087 1.387l.608.087z" fill="#A9C994"/><path d="M19.043 4.232c-2.608 2.342-4.956 4.9-7.174 7.633-1.087 1.344-2.174 2.732-3.13 4.163-1 1.474-1.957 2.905-2.783 4.467h-.043c.391-.78.782-1.562 1.217-2.342.435-.737.913-1.518 1.392-2.255.913-1.475 2-2.862 3.086-4.25 1.13-1.345 2.261-2.689 3.522-3.903a77.54 77.54 0 011.913-1.822c.609-.607 1.305-1.17 2-1.691z" fill="#4D9E35"/><path d="M3.87 20.408c1.043-1.56 2.26-2.949 3.39-4.423 1.174-1.431 2.348-2.862 3.61-4.207 2.52-2.732 5.217-5.29 8.13-7.546l.043.044C18.347 4.883 17.652 5.49 17 6.14c-.696.607-1.348 1.257-2 1.908-1.305 1.3-2.61 2.602-3.87 3.99-1.26 1.3-2.435 2.732-3.609 4.163l-1.826 2.081a92.722 92.722 0 00-1.826 2.125z" fill="#7DC435"/></svg>