<svg width="74" height="74" fill="none" xmlns="http://www.w3.org/2000/svg"><path d="M36.714 36.578c-1.121-3.32-2.136-6.814-3.116-10.168-1.032-3.865-1.87-7.853-2.618-11.788a124.303 124.303 0 003.693 12.197c1.051 3.036 2.19 6.125 3.47 9.18.317.67.58 1.43.895 2.1a62.786 62.786 0 001.65 3.638c.667 1.483 1.334 2.967 2.142 4.415.562 1.06 1.036 2.066 1.598 3.126 1.878 3.655 3.986 7.33 6.166 10.686l-2.409 4.192c-2.055-3.762-4.528-9.818-6.16-13.685-.473-1.006-.894-2.1-1.315-3.195-.613-1.571-1.28-3.055-1.84-4.714-.456-1.236-.947-2.613-1.403-3.848-.316-.672-.49-1.377-.753-2.136zm2.653 11.326c-7.575 11.165-18.684 9.87-16.895 6.505 0 0-10.48 1.245-12.5-2.375-1.897-3.427 2.372-3.734 2.796-3.839-.529-.319-5.902-2.96-5.876-6.787.045-4.057 9.368-.596 9.368-.596s-4.244-10.487 7.58-5.397c2.376 2.034 5.987 4.212 11.063 5.953l4.465 6.536zm5.32-11.802c1.328-2.202 2.674-4.633 3.296-6.66l.053-.088c4.596-12.001 6.702.439 6.702.439s9.093-11.69 10.44-6.555c1.399 5.048-3.43 10.663-3.43 10.663s5.05-1.999 5.642 1.001c.593 3-7.14 6.263-7.14 6.263 6.062 2.096-6.495 9.175-15.815 4.514l.252-9.577z" fill="#488C1C"/><path d="M23.858 28.222s-3.867-5.936-3.999-10.099l1.676-.19c5.345 7.668 12.063 8.477 12.063 8.477.927 3.442 1.907 6.796 3.116 10.168.263.759.49 1.376.754 2.136.455 1.235.946 2.612 1.402 3.848-1.446-.391-2.803-.73-3.966-1.191-4.988-1.687-8.652-3.777-11.063-5.952-5.282-4.387-4.76-8.637.017-7.197z" fill="#63AA35"/><path d="M38.144 35.996a142.566 142.566 0 01-3.471-9.18 124.303 124.303 0 01-3.693-12.197c.749 3.935 1.586 7.923 2.618 11.788 0 0-6.86-.774-12.063-8.477l-1.676.19c-.066-2.081.75-3.631 3.537-3.872 0 0 .575-11.904 5.021-12.705 4.692.187 7.334 9.348 7.334 9.348 10.747-9.853 7.023 13.845 7.023 13.845 5.754-1.574 6.524.932 5.37 4.44l-.054.088c-.675 2.115-2.021 4.546-3.296 6.66A63.53 63.53 0 0140.83 41.7c-.597-1.201-1.141-2.49-1.65-3.638-.457-.636-.72-1.395-1.036-2.066z" fill="#63AA35"/><path d="M6.89 41.413c.036-.458.072-.917.426-1.304.3-.299.777-.492 1.2-.597.848-.21 1.765-.137 2.682-.064 1.781.233 3.456.643 5.165 1.194l-.194.123a11.81 11.81 0 01-.786-3.477c-.05-1.111.342-2.557 1.49-3.066 1.147-.508 2.381-.364 3.51-.044 1.18.232 2.256.64 3.366 1.19l-.053.087c-1.182-.231-2.363-.464-3.51-.554-1.145-.091-2.257-.041-2.84.328-.67.316-.779 1.092-.763 2.062.015.97.295 2.1.68 3.053L18 42.71l-2.291-.781a43.3 43.3 0 00-4.865-1.493c-.864-.16-1.64-.269-2.38-.235-.742.034-1.413.35-1.626 1.301l.053-.087z" fill="#5CB523"/><path d="M39.509 47.876c-2.036 2.977-4.74 5.669-8.008 7.302-1.59.843-3.39 1.438-5.154 1.575-.882.069-1.852.084-2.751-.218-.405-.124-.846-.39-1.092-.778-.334-.442-.244-.989.021-1.43l.035.142c-1.623.102-3.246.204-4.904.165-1.658-.04-3.263-.166-4.796-.611-.81-.249-1.569-.586-2.22-1.099-.651-.513-1.055-1.237-1.265-2.084-.21-.847.321-1.728 1.046-2.132.724-.404 1.518-.526 2.4-.594l-.053.088c-1.375-.709-2.784-1.559-3.892-2.708-1.162-1.06-2.111-2.474-2.072-4.132l.088.053c.102 1.623 1.07 2.807 2.231 3.868 1.215.973 2.536 1.77 3.822 2.426l1.692.78-1.906.172c-.652.086-1.5.296-2.03.577-.582.369-.707.774-.567 1.34.07.281.14.564.386.953.123.194.334.441.633.742.475.407 1.233.743 1.868.886 1.533.445 3.138.572 4.708.558 1.57-.014 3.14-.028 4.675-.183l1.393-.12-.655 1.286c-.16.264-.125.405-.09.546.123.195.387.354.793.478.67.284 1.587.357 2.38.235a17.59 17.59 0 004.995-1.311c3.214-1.545 5.99-3.955 8.289-6.772z" fill="#36661C"/><path d="M34.901 41.373a506.022 506.022 0 014.572 6.36l-.053.089c-.617-.372-1.092-.779-1.656-1.239-.475-.407-.844-.99-1.266-1.484-.37-.583-.738-1.166-1.02-1.696-.227-.618-.543-1.289-.577-2.03z" fill="#5CB523"/><path d="M33.984 26.768c1.416-2.149 2.621-4.545 3.65-7.047 1.029-2.503 1.828-5.023 2.135-7.721-.077 2.716-.7 5.343-1.5 7.863a54.09 54.09 0 01-3.087 7.507l-1.145-.69-.053.088z" fill="#488C1C"/><path d="M34.052 27.044c-1.41-.25-2.574-.711-3.772-1.314-1.198-.602-2.255-1.24-3.293-2.106-2.043-1.592-3.731-3.572-5.085-5.71 1.548 2.015 3.343 3.818 5.403 5.181 1.057.638 2.114 1.275 3.277 1.736 1.163.462 2.38.835 3.526.926l-.056 1.287zm3.613 8.551a17.36 17.36 0 001.98-1.69c.6-.597 1.167-1.337 1.733-2.076 1.08-1.391 2.124-2.924 2.904-4.615-.64 1.657-1.42 3.348-2.375 4.933-.479.793-.957 1.586-1.523 2.325-.566.74-1.132 1.48-1.874 2.112l-.845-.99zm-.725 1.602c-2.503-.429-4.847-1.122-7.12-2.133-2.22-1.099-4.228-2.55-5.687-4.511 1.512 1.873 3.68 3.06 5.917 3.93a21.61 21.61 0 006.947 1.427l-.056 1.287z" fill="#488C1C"/><path d="M44.577 45.645a17.246 17.246 0 005.219 1.105c1.746.093 3.51-.044 5.204-.464 1.695-.42 3.407-1.068 4.767-1.929.636-.457 1.379-1.09 1.415-1.549.018-.23.071-.317-.193-.477a4.255 4.255 0 00-.934-.443l-1.797-.604 1.818-.824c1.201-.597 2.402-1.194 3.515-1.844 1.112-.65 2.243-1.53 2.916-2.445.319-.529.478-.793.338-1.358-.158-.335-.457-.636-1.004-.725-1.093-.18-2.452.082-3.634.45l-2.083.665 1.468-1.637c1.22-1.425 2.264-2.958 3.01-4.79.78-1.692 1.207-3.596.806-5.52l.141-.034c.543 1.888.15 3.933-.454 5.731-.745 1.833-1.755 3.506-2.887 4.985l-.088-.053c1.236-.456 2.648-.805 4.058-.555.635.143 1.34.568 1.602 1.327.316.67.067 1.482-.393 2.045-.831 1.18-1.91 1.971-3.075 2.71-1.166.737-2.367 1.334-3.656 1.878l-.035-.141c.406.124.846.39 1.145.69.388.354.58.83.403 1.324-.302.9-1.132 1.48-1.822 2.024-1.554.985-3.302 1.492-5.084 1.858-3.688.538-7.444.195-10.686-1.4z" fill="#36661C"/><path d="M65.23 23.152c-.282-.53-.757-.937-1.127-.92-.459-.036-.9.298-1.342.632-.919.527-1.732 1.477-2.44 2.252-.76.862-1.609 1.672-2.37 2.534-.76.863-1.485 1.867-2.246 2.73l-1.733 2.076-.347-2.61c-.103-1.024-.436-2.066-.68-3.054-.245-.988-1.002-1.925-1.055-1.837-.088-.053-.511.052-.865.44-.354.386-.707.774-.973 1.214-.672.915-1.203 1.796-1.841 2.853l-.088-.053c.408-1.075.816-2.15 1.4-3.119.266-.44.585-.969.939-1.356.353-.387.848-.81 1.501-.896.6.002 1.11.55 1.444.991.334.442.615.972.755 1.537.42 1.094.754 2.136.945 3.212l-.23-.018c1.487-1.866 3.149-3.626 4.846-5.245.849-.81 1.785-1.566 2.845-2.128.53-.28 1.148-.509 1.782-.366.512-.052.88.531.88 1.13zM44.88 35.98c.352.812.473 1.606.454 2.435.121.794.102 1.623.082 2.452-.107.776-.127 1.605-.235 2.38-.107.777-.356 1.587-.605 2.398l-.088-.053c.025-3.228.138-6.402.393-9.612z" fill="#5CB523"/><path d="M50.735 59.93l-1.134 2.078-1.221 2.025-.177-.106c-.316-.67-.367-1.182-.472-1.606.036-.459.16-.864.285-1.27.213-.352.513-.65.902-.897.388-.246.865-.439 1.606-.472l.264.16-.053.087zM42.76 45.272c.794-.121 1.942-.63 2.86-1.157a26.64 26.64 0 002.774-1.81c1.767-1.337 3.41-2.868 5.02-4.54 3.164-3.255 5.942-6.865 8.544-10.58-2.338 3.875-4.904 7.731-7.858 11.235-1.521 1.725-3.042 3.45-4.862 4.874a44.216 44.216 0 01-2.845 2.128c-.971.615-1.943 1.23-3.355 1.58l-.278-1.73zm-1.646 2.729c-2.208 1.071-4.395 1.313-6.618 1.414-2.223.1-4.374-.116-6.508-.562-4.266-.892-8.337-2.507-12.195-4.474 3.965 1.791 8.107 3.088 12.356 3.61 2.098.305 4.215.38 6.315.085 2.046-.207 4.252-.678 5.895-1.609l.755 1.536z" fill="#36661C"/><path d="M30.65 49.014c-1.53-2.244-3.342-4.417-5.26-6.415a55.265 55.265 0 00-6.248-5.57c2.324 1.522 4.49 3.308 6.549 5.27 2.059 1.964 3.977 3.961 5.594 6.258l-.636.457zm-5.551-.944c-1.979 1.088-3.973 1.807-6.056 2.472-2.118.524-4.359.854-6.44.32 2.187.358 4.305-.166 6.335-.743 1.995-.719 4.008-1.667 5.757-2.774l.404.724zm9.979.975c-1.45 1.408-3.022 2.622-4.806 3.588a14.25 14.25 0 01-5.612 1.539 12.781 12.781 0 005.42-2.016 18.006 18.006 0 004.4-3.712l.599.601zm16.495-9.025c-.03-1.94.026-3.828.172-5.662.145-1.834.256-3.81.772-5.66-.287 1.869-.344 3.756-.314 5.696.031 1.94.115 3.793.287 5.698l-.917-.072zm2.615-2.747c3.404.131 6.933-.143 10.198-1.176-1.624.702-3.318 1.122-5.013 1.541-1.729.278-3.458.556-5.257.552l.072-.917zm-4.86 4.871a20.088 20.088 0 004.688 1.387c1.64.268 3.298.307 4.85-.077-1.57.613-3.281.662-4.886.535s-3.333-.449-4.901-1.034l.248-.811z" fill="#36661C"/><path d="M18.78 34.05c1.617 2.298 3.624 3.749 5.65 4.97 2.29 1.382 4.669 2.216 7.066 2.822 1.358.338 2.768.588 4.232.75l-1.443-1.59c-2.96-1.066-5.762-2.395-8.386-4.218-.528-.319-.916-.672-1.39-1.08l-5.73-1.653z" fill="#A9C994"/><path d="M28.448 1.688c-1.182.368-1.767 1.337-2.263 2.359-.496 1.021-.728 2.203-.907 3.296-.411 2.274-.558 4.708-.598 6.966l.015.97-1.165.138c-.564.14-1.129.28-1.465.438-.3.299-.548.51-.672.915-.249.811-.075 2.117.292 3.3.368 1.182.912 2.471 1.509 3.672.597 1.2 1.335 2.367 1.985 3.48l2.073 3.532-3.825-1.226c-.493-.177-.952-.214-1.27-.285-.37.017-.564.14-.51.052 0 0-.107.176-.09.546.016.37.21.847.455 1.236.966 1.784 2.638 3.393 4.416 4.826 1.779 1.432 3.857 2.566 5.99 3.612 2.025 1.222 4.263 2.091 6.5 2.96l-.105.177c-4.62-1.105-9.237-2.809-13.216-5.57-1.832-1.344-3.733-2.972-4.945-5.144-.28-.53-.562-1.06-.649-1.712-.086-.653-.032-1.341.375-1.816.407-.476 1.113-.65 1.766-.737.6.001 1.234.144 1.869.287l-.16.264c-1.564-2.385-2.793-4.928-3.633-7.717-.402-1.324-.699-2.824-.22-4.216.196-.723.798-1.321 1.38-1.69a5.507 5.507 0 012.118-.524l-.106.176c.147-2.434.47-4.762 1.163-7.106.32-1.128.694-2.344 1.278-3.313.584-.969 1.504-2.095 2.722-2.322l-.107.176z" fill="#7DC435"/><path d="M44.59 38.448c.3-.299.6-.598.954-.985a32.694 32.694 0 003.822-5.142c.584-.968 1.08-1.99 1.454-3.206.692-1.745.91-4.496.1-4.745-.318-.071-.956.985-1.274 1.514-.425.704-1.79 3.365-1.79 3.365-.196.722-.48 1.392-.816 2.15-.727 1.603-1.577 3.012-2.48 4.51l.03 2.54z" fill="#C3DAB4"/><path d="M40.737 41.649l3.134-5.196c.974-1.815 1.896-3.541 2.64-5.374a13.02 13.02 0 00.96-2.785c.16-.864.286-1.869-.048-2.31-.193-.477-.774-.708-1.656-.64-.83-.019-1.818.226-2.665.435l-1.606.473.18-1.693c.234-1.781.432-3.703.49-5.59.145-1.834.202-3.722-.023-5.539a10.043 10.043 0 00-.54-2.488c-.264-.76-.686-1.254-1.18-1.432-.405-.124-1.252.086-1.923.401-.724.405-1.501.896-2.155 1.583l-1.043.932-.315-1.27c-.49-1.977-1.26-3.884-2.227-5.668a11.38 11.38 0 00-1.74-2.49c-.686-.655-1.602-1.327-2.607-1.453l-.035-.141c1.058.037 2.08.534 2.854 1.241.775.707 1.443 1.59 2.023 2.421a22.068 22.068 0 012.544 5.739l-.176-.107c.743-.633 1.485-1.266 2.262-1.758.777-.492 1.819-.825 2.77-.611 1.04.267 1.568 1.185 1.954 2.139.386.953.542 1.889.61 2.77.486 3.776.089 7.62-.485 11.359l-.176-.107c.989-.244 1.977-.489 3.035-.451.97-.015 2.24.27 2.66 1.364.474 1.007.207 2.047-.06 3.087s-.657 1.886-1.1 2.82c-1.772 3.735-4.02 7.063-6.497 10.374l.14-.035z" fill="#488C1C"/><path d="M41.553 40.698c-.42-1.095-.895-2.102-1.316-3.196-1.684-3.779-3.227-7.592-4.683-11.353-.771-1.907-1.49-3.901-2.173-5.755-.772-1.907-1.402-3.848-2.121-5.843l-.141.035c1.992 8.048 4.743 15.833 7.97 23.425.544 1.289 1.176 2.63 1.72 3.92l.744-1.233z" fill="#A9C994"/><path d="M31.172 14.498c2.045 7.96 4.831 15.886 8.112 23.39A163.01 163.01 0 0044.532 49.1c1.879 3.655 3.899 7.276 6.113 10.773l-.053.088c-1.248-1.713-2.409-3.374-3.516-5.123a92.199 92.199 0 01-3.127-5.37c-2.02-3.62-3.846-7.364-5.53-11.142-1.544-3.814-3.034-7.715-4.383-11.652-.577-2.03-1.208-3.972-1.697-5.948-.524-2.118-.872-4.13-1.167-6.23z" fill="#4D9E35"/><path d="M48.185 64.156c-2.09-3.903-3.703-8-5.51-11.972-1.755-4.061-3.421-8.069-4.893-12.2-2.944-8.262-5.27-16.751-6.802-25.362l.088.053c.524 2.118 1.048 4.235 1.66 6.406.524 2.118 1.19 4.201 1.802 6.372 1.331 4.166 2.52 8.367 4.134 12.463 1.472 4.13 2.997 8.174 4.751 12.235l2.42 6.143a329.95 329.95 0 012.35 5.862z" fill="#7DC435"/></svg>