<svg width="53" height="53" fill="none" xmlns="http://www.w3.org/2000/svg"><g clip-path="url(#clip0_419_13162)"><path d="M52.763 26.5c0 .483.06.966.06 1.51 0 13.762-11.83 24.87-26.441 24.87C11.772 52.88 0 41.771 0 28.01c0-.484 0-1.027.06-1.51.827 13.039 12.303 23.361 26.38 23.361 2.071 0 4.141-.241 6.034-.664 11.18-2.415 19.639-11.59 20.29-22.697z" fill="#BC2C00"/><path d="M40.519 31.148c3.904 1.69 7.63 1.69 7.808-1.087.177-3.32.65-5.795.65-8.089 0-2.293-2.78-10.02-5.678-8.632a32.902 32.902 0 00-3.904 2.234c-3.49 2.112-7.513 5.433-8.045 8.39-.473 2.475 2.484 3.32 6.98 6.037.769.422 1.479.785 2.189 1.147zm12.303-6.157c0 .483 0 1.026-.059 1.509-.65 11.107-9.11 20.282-20.29 22.697l-.472-2.415c.532-.12 1.005-.302 1.479-.483 2.78-1.267 8.34-3.622 9.286-5.372 1.065-2.234-1.064-4.527-5.5-8.21-3.964-3.199-6.212-4.225-7.927-3.803l-.237-1.448c.06 0 .119-.06.237-.06 1.42-.061 1.538-.544.828-1.57-.65-1.087.591-2.596-.296-3.2-.591-.422-1.42-.845-2.01-.845l-.178-1.267c2.01-1.268 4.554-4.166 6.21-6.097.415-.483.829-.906 1.184-1.328 2.366-2.596 4.14-4.527 3.49-6.338-.414-1.087-2.485-1.872-5.324-2.294l.828-3.26c10.884 3.079 18.751 12.556 18.751 23.784z" fill="#FF6924"/><path d="M48.919 21.912c0 2.294-.474 4.769-.651 8.09-.06 2.836-3.845 2.836-7.749 1.146 5.028-1.388 3.963-4.467 2.84-6.157-1.125-1.63-.178-3.14 0-5.01.118-1.872-.178-4.588-4.023-4.528a32.924 32.924 0 013.904-2.233c2.898-1.328 5.678 6.398 5.678 8.692z" fill="#BC2C00"/><path d="M32.12 24.447c.059.181 1.892 3.441 3.312 2.053 1.36-1.389-3.017-1.992-3.313-2.053zm11.238.544c1.124 1.69 2.189 4.768-2.84 6.157-.709-.362-1.419-.724-2.188-1.147-4.495-2.716-7.453-3.562-6.98-6.037.533-3.018 4.555-6.277 7.986-8.51 3.845-.061 4.14 2.655 4.022 4.526-.177 1.872-1.124 3.38 0 5.01zm-9.464-1.147s3.608 1.086 3.194-.544c-.414-1.63-3.194.544-3.194.544zm-.237-2.053s4.378-.362 3.195-2.112c-1.065-1.811-3.195 2.112-3.195 2.112z" fill="#DE3B01"/><path d="M37.207 32.718c4.436 3.682 6.566 5.976 5.5 8.21-.886 1.81-6.447 4.104-9.286 5.372a7.868 7.868 0 01-1.42.483c-2.78.603-6.388-.121-6.27-5.494.06-1.388.06-2.656.178-3.863-.118 3.441 2.662 6.882 5.383 5.916 2.78-.966 4.732.302 5.5-1.932.77-2.173 2.426-2.716 2.248-4.587-.118-1.751-1.656-3.864-1.833-4.105z" fill="#BC2C00"/><path d="M39.04 36.822c.178 1.871-1.478 2.415-2.247 4.648-.77 2.234-2.721.906-5.501 1.872-2.721.965-5.501-2.475-5.383-5.916v-.06c.236-4.226.769-7.123 2.72-8.15.237-.12.474-.241.71-.302 1.716-.422 3.964.544 7.868 3.743.177.302 1.715 2.415 1.834 4.165zm-5.796-3.5c2.13-1.269-2.662-3.14-2.662-3.14s.591 4.407 2.662 3.14zm-1.065 4.225c1.775-.664-.887-2.777-.887-2.777s-.888 3.38.887 2.777zm-3.313-1.389c2.248.181 0-4.406 0-4.406s-2.247 4.225 0 4.406z" fill="#DE3B01"/><path d="M38.567 6.76c.65 1.812-1.124 3.743-3.49 6.339-1.183-2.898-3.312-2.053-4.259-1.811-.887.181-3.372 1.268-5.087-.905-1.715-2.174-4.614-2.294-6.625-.604a7.976 7.976 0 01-.591-2.656c-.178-3.984 6.21-3.26 10.41-3.079 1.538.06 3.017.181 4.318.423 2.899.422 4.97 1.147 5.324 2.294z" fill="#BC2C00"/><path d="M37.088 23.3c.355 1.63-3.194.544-3.194.544s2.78-2.173 3.194-.544zm-.177-3.621c1.124 1.81-3.194 2.112-3.194 2.112s2.07-3.923 3.194-2.112zm-4.791 4.768c.295 0 4.731.664 3.312 2.053-1.42 1.388-3.254-1.872-3.313-2.053z" fill="#FF9E03"/><path d="M35.137 13.099c-.415.422-.828.905-1.243 1.328-1.656 1.932-4.2 4.829-6.21 6.097a5.684 5.684 0 01-1.243.603c-2.07.483-4.495-3.5-4.91-6.459-.295-2.112-1.656-3.018-2.425-4.89 2.07-1.69 4.91-1.569 6.625.604 1.716 2.174 4.2 1.087 5.147.906.946-.242 3.075-1.147 4.259 1.81zm-6.152 4.89s2.188-2.113.828-2.536c-1.36-.362-.828 2.535-.828 2.535zm-2.544 1.69s2.958-2.958.71-3.32c-2.307-.363-.71 3.32-.71 3.32zm-1.656-1.992s1.775-3.683-.414-3.562c-2.189.12.414 3.562.414 3.562z" fill="#DE3B01"/><path d="M34.071 1.207l-.828 3.26c-1.301-.242-2.78-.362-4.318-.423-4.2-.18-10.588-.905-10.41 3.079a7.976 7.976 0 00.591 2.656c.769 1.81 2.189 2.777 2.425 4.89.414 2.957 2.84 6.941 4.91 6.458a5.68 5.68 0 001.242-.603l.118 1.267c-.295 0-.591.121-.769.423-.532.905-1.005.302-1.833.423-1.952.301-1.657-.604-2.307.603-.65 1.208-2.485 2.113-1.302 3.14 1.183.965 1.657 2.172 2.721 1.569 1.065-.664 1.775-.423 2.07.241.356.664 1.42-.604 2.722-.724l.177 1.509c-.177.06-.414.12-.65.241-1.953 1.026-2.544 3.924-2.721 8.15v.06c-.119 1.207-.119 2.475-.178 3.863-.118 5.373 3.43 6.157 6.27 5.493l.473 2.415a25.03 25.03 0 01-6.033.724C12.42 49.921.887 39.6.059 26.561 0 26.016 0 25.533 0 24.99 0 11.228 11.83.12 26.44.12c2.663 0 5.206.362 7.631 1.086zM23.247 36.34c.828-4.768 1.123-5.915-.888-7.485-2.602-1.992-6.151-.422-10.647 1.932-.887.483-1.715.905-2.366 1.328-2.78 1.69-3.608 3.32-.355 7.183 4.022 4.83 6.743 4.588 9.524 6.097 2.72 1.51 3.726-3.501 4.672-8.692 0-.06.06-.242.06-.363zm-2.189-13.1c1.065-1.69-.118-2.716-2.011-6.76a81.745 81.745 0 00-1.893-3.985c-1.301-2.535-2.662-4.527-4.2-3.923-2.248.845-5.264 3.561-7.039 7.304-1.834 3.742-1.36 8.692-.591 10.624.591 1.57 2.188 2.354 5.264 1.57.828-.182 1.716-.484 2.78-.906 4.97-1.932 7.098-2.898 7.69-3.924z" fill="#FF6924"/><path d="M30.581 30.182s4.791 1.932 2.662 3.2c-2.07 1.207-2.662-3.2-2.662-3.2zm.71 4.528s2.721 2.173.888 2.776c-1.775.664-.888-2.776-.888-2.776zm-1.123-8.874c.71 1.087.591 1.509-.828 1.63-.06 0-.119 0-.237.06-1.301.06-2.366 1.328-2.721.664-.296-.724-1.006-.905-2.07-.302-1.065.604-1.48-.543-2.721-1.57-1.183-.965.591-1.93 1.301-3.138.65-1.207.355-.302 2.307-.604.828-.06 1.301.543 1.834-.362.177-.302.473-.422.769-.422.65 0 1.42.422 2.01.845.947.603-.295 2.112.356 3.199zm-.355-10.383c1.36.423-.829 2.535-.829 2.535s-.532-2.897.829-2.535zm-.947 16.299s2.248 4.587 0 4.406c-2.248-.181 0-4.407 0-4.407zm-1.775-15.393c2.248.362-.71 3.32-.71 3.32s-1.537-3.683.71-3.32zm-2.72-2.234c2.189-.12.414 3.561.414 3.561s-2.603-3.44-.414-3.561z" fill="#FF9E03"/><path d="M22.419 28.854c2.011 1.51 1.715 2.656.887 7.485-3.727 5.131-6.152 4.286-6.152 4.286-1.301 2.173-4.436-.785-6.152-2.535-1.715-1.75-3.371-4.648-1.715-5.976.71-.423 1.479-.845 2.366-1.328 4.555-2.355 8.104-3.924 10.766-1.932zm-.947 4.95c1.893-.12-.236-3.2-.236-3.2s-1.657 3.32.236 3.2zm-4.318 1.81c1.952 1.269 1.893-3.862 1.893-3.862s-3.845 2.595-1.893 3.863zm-3.017-3.32c1.598 2.234 3.905-2.414 3.905-2.414s-5.502.181-3.905 2.415z" fill="#DE3B01"/><path d="M23.247 36.34c0 .12-.06.301-.06.422-.946 5.191-1.952 10.201-4.673 8.632-2.72-1.51-5.441-1.268-9.523-6.097-3.253-3.863-2.425-5.493.296-7.183-1.716 1.328 0 4.225 1.715 5.976 1.716 1.75 4.85 4.708 6.152 2.535 0 0 2.425.845 6.093-4.286z" fill="#BC2C00"/><path d="M21.235 30.605s2.13 3.078.237 3.199c-1.893.12-.237-3.2-.237-3.2z" fill="#FF9E03"/><path d="M19.047 16.48c1.893 4.044 3.076 5.07 2.011 6.76-.591 1.026-2.72 1.992-7.69 3.984a16.29 16.29 0 01-2.78.905c-2.78-1.81-.769-5.976-.769-5.976s-1.774-1.81-1.774-3.682c0-1.871 2.425-3.139 3.667-4.648s3.372-2.897 5.442-1.328a81.838 81.838 0 011.893 3.984zm-6.388 3.5c-.592 1.69 4.91 1.147 4.91 1.147s-4.378-2.897-4.91-1.147zm4.91 4.045s-3.905-.845-3.609.966c.296 1.87 3.608-.966 3.608-.966zm0-5.614s-1.953-4.709-3.195-2.958c-1.242 1.81 3.194 2.958 3.194 2.958z" fill="#DE3B01"/><path d="M19.106 31.752s.06 5.13-1.893 3.863c-2.011-1.268 1.893-3.864 1.893-3.864zm-1.537-10.624s-5.56.543-4.97-1.148c.592-1.75 4.97 1.148 4.97 1.148zM13.96 24.99c-.296-1.81 3.608-.965 3.608-.965s-3.313 2.837-3.609.966z" fill="#FF9E03"/><path d="M17.154 12.495c-2.07-1.57-4.2-.18-5.442 1.328-1.242 1.51-3.609 2.717-3.609 4.588s1.775 3.682 1.775 3.682-2.07 4.226.71 6.037c-3.076.724-4.614-.06-5.265-1.63-.769-1.932-1.242-6.882.592-10.624 1.774-3.743 4.85-6.399 7.098-7.304 1.479-.604 2.84 1.388 4.14 3.923z" fill="#BC2C00"/><path d="M18.041 29.82s-2.306 4.648-3.904 2.414c-1.597-2.173 3.904-2.414 3.904-2.414zm-3.667-14.367c1.242-1.75 3.194 2.958 3.194 2.958s-4.436-1.147-3.194-2.958z" fill="#FF9E03"/><path d="M39.454 15.393a3.951 3.951 0 012.899-.12c.532.18 1.005.543 1.42.965.413.423.65 1.026.828 1.51.355 1.086.355 2.112.236 3.138-.118.966-.355 1.811-.355 2.294 0 .242 0 .423.06.604.059.12.059.18.177.302.118.18.296.483.355.664.414.965.828 2.173.473 3.44-.177.604-.473 1.208-.887 1.63-.355.483-.77.785-1.242 1.026-.947.363-1.893.483-2.78.363l-.06-.181c.828-.242 1.597-.544 2.307-1.027.65-.422 1.242-1.147 1.36-1.992.119-.845-.177-1.63-.59-2.414-.178-.302-.474-.664-.651-1.087-.237-.422-.296-.905-.296-1.328 0-.905.296-1.75.473-2.596a6.102 6.102 0 000-2.535c-.177-.785-.65-1.57-1.36-1.992-.71-.362-1.538-.483-2.367-.483v-.18zM26.027 37.365c0 2.113.946 4.226 2.662 5.433a2.99 2.99 0 002.839.362c1.006-.362 2.07-.422 3.135-.482.473 0 1.006-.06 1.42-.302.414-.242.591-.725.769-1.208.414-1.026 1.183-1.81 1.715-2.656.592-.845.473-1.992.118-2.958-.355-1.026-.887-1.931-1.478-2.837l.118-.12a8.375 8.375 0 012.248 2.535c.177.241.295.543.414.845.059.12.118.302.177.483 0 .12.06.362.06.543.118.725-.119 1.63-.415 2.234-.355.603-.65 1.026-.887 1.388-.237.423-.355.785-.473 1.147l-.06.181s-.059.12 0 .06l-.059.121a4.25 4.25 0 01-.236.604 4.294 4.294 0 01-1.006 1.087c-.887.663-1.774.663-2.307.724-1.123 0-1.952.06-2.72.241l-.474.121c-.177.06-.414.06-.591.06-.414.06-.77 0-1.183-.06-.77-.12-1.42-.483-1.952-.905-2.07-1.751-2.662-4.467-2.012-6.64h.178zM9.464 32.174a1.71 1.71 0 00-.65 1.51c.059.603.236 1.147.532 1.69.473 1.086 1.242 2.052 2.13 2.837.828.845 1.715 1.69 2.72 2.294.474.302 1.006.603 1.538.664.592.12 1.124-.121 1.42-.604v-.12h.118c.533.12 1.183-.061 1.775-.302.591-.242 1.124-.665 1.597-1.027 1.006-.845 1.834-1.81 2.603-2.897l.177.12c-.414 1.329-1.065 2.596-2.011 3.683a6.004 6.004 0 01-1.715 1.509 4.226 4.226 0 01-1.183.543c-.237.06-.474.12-.71.12h-.414c-.178 0-.237 0-.592-.12l1.775-.664c-.296.483-.71 1.026-1.302 1.268-.591.302-1.242.362-1.774.302-1.006-.121-1.656-.483-2.248-.906-1.183-.785-2.07-1.69-2.898-2.656-.415-.483-.888-1.026-1.183-1.63-.355-.603-.651-1.207-.829-1.871-.236-.664-.355-1.388-.236-2.173.059-.785.65-1.51 1.242-1.69l.118.12z" fill="#991D00"/><path d="M39.454 15.393c.828 0 1.716.06 2.485.483.769.423 1.301 1.268 1.478 2.113.178.845.178 1.75 0 2.595-.118.906-.413 1.751-.413 2.596 0 .423.059.845.236 1.207.118.363.414.725.65 1.087.415.785.71 1.63.592 2.535-.177.966-.769 1.69-1.478 2.173a7.57 7.57 0 01-2.426.966v-.12c.77-.423 1.479-.846 2.07-1.389.592-.543.888-1.147.888-1.69 0-.604-.237-1.207-.65-1.811l-.297-.543c-.177-.181-.295-.423-.414-.725a4.335 4.335 0 01-.355-1.69c.06-1.147.355-1.992.533-2.716.177-.725.236-1.51.177-2.173-.118-.725-.355-1.329-.887-1.811-.592-.483-1.36-.725-2.189-.966v-.12zM26.027 37.366c.178 1.086.532 2.052 1.124 2.837.532.845 1.183 1.509 1.952 1.931.355.242.71.302 1.065.363.177 0 .355 0 .532-.06.06 0 .178-.061.237-.061l.296-.12c1.123-.423 2.366-.423 3.371-.484.473 0 .828-.06.947-.18l.236-.242c.06-.06.06-.121.119-.242l.177-.362c.532-1.207 1.42-2.113 1.952-2.716.177-.302.355-.604.414-1.026 0-.423-.06-.846-.177-1.329-.178-1.026-.651-1.992-1.065-2.957l.118-.06c.65.844 1.183 1.75 1.538 2.776.178.483.355 1.026.355 1.57 0 .543-.177 1.086-.473 1.569-.592.905-1.301 1.63-1.716 2.656-.118.483-.355 1.026-.828 1.328-.473.362-1.005.422-1.538.422-1.064.06-2.07.121-3.076.423-1.005.423-2.188.181-3.016-.422-1.775-1.268-2.721-3.441-2.662-5.614h.118zM9.464 32.174c-.828 1.027-.236 2.113.355 3.019.65.905 1.42 1.75 2.248 2.475.887.784 1.715 1.57 2.603 2.112.414.302.887.483 1.183.544h.295c.06 0 .119-.06.237-.181l.414-.604.77.12h.413c.237-.06.473-.12.77-.18.532-.182 1.064-.483 1.537-.785a25.416 25.416 0 001.538-1.147c.532-.423.946-.845 1.479-1.268l.118.06c-.828 1.087-1.656 2.113-2.603 2.958a9.823 9.823 0 01-1.656 1.087c-.591.302-1.242.483-1.952.362l.118-.06c-.295.603-1.005.905-1.597.785-.591-.06-1.183-.363-1.715-.725-1.006-.604-1.893-1.449-2.721-2.354a9.622 9.622 0 01-2.13-2.958c-.295-.483-.532-1.086-.532-1.69-.059-.664.237-1.328.71-1.69l.118.12z" fill="#F53B01"/><path d="M19.106 9.719c1.183-1.026 2.84-1.51 4.378-1.087a4.218 4.218 0 012.01 1.147c.297.242.533.604.77.845.296.242.591.423.887.604.71.302 1.479.362 2.189.242.71-.121 1.479-.363 2.188-.544.77-.18 1.597-.241 2.307.242.71.422 1.124 1.147 1.42 1.87l-.178.061c-.532-.543-1.123-1.026-1.656-1.086-.532-.06-.946.12-1.538.362l-.473.241-.532.181c-.355.121-.77.302-1.242.423-.947.181-2.07.181-3.136-.241-.532-.242-1.005-.604-1.42-.966-.058-.121-.177-.242-.295-.362l-.177-.242-.296-.302c-.296-.483-.71-.784-1.183-1.026-1.006-.543-2.307-.664-3.904-.241l-.119-.121zm-1.893 2.837c-1.42-.483-2.425 0-3.254.724-.354.422-.768.845-1.064 1.328-.414.664-1.065 1.207-1.48 1.75-.472.483-.945.906-1.241 1.328-.355.363-.355.665-.414.725v.362s.059.181.059.242c.059.241.177.422.236.663.237.483.592 1.087.888 1.45l.71.965-.474.664a3.807 3.807 0 00-.591 1.207 11.8 11.8 0 00-.473 1.328c-.06.423-.119.906 0 1.389.059.483.295.905.65 1.388l-.118.12c-.473-.3-.887-.724-1.124-1.206a3.339 3.339 0 01-.414-1.63c-.06-1.147.237-2.234.71-3.26l.059.181c-.946-1.026-1.775-2.294-1.893-3.742-.059-.846.355-1.51.828-2.053.473-.543 1.006-.966 1.48-1.448.531-.423 1.005-.906 1.478-1.389.473-.543 1.005-1.026 1.597-1.388.591-.362 1.301-.604 2.011-.544.71 0 1.36.302 1.952.725l-.118.12z" fill="#F54501"/><path d="M52.941 26.5c.237 3.501-.355 7.063-1.656 10.383-1.301 3.26-3.371 6.217-5.856 8.632C40.342 50.405 33.421 53.06 26.5 53c-6.92 0-13.841-2.596-18.869-7.485a24.422 24.422 0 01-5.856-8.633A23.022 23.022 0 01.06 26.5h.118c-.06 7.063 3.076 13.823 8.045 18.29 4.968 4.528 11.593 7.063 18.277 6.942 3.313 0 6.626-.543 9.76-1.75 3.136-1.147 5.975-3.019 8.518-5.252 5.028-4.467 8.104-11.228 8.045-18.29l.118.06z" fill="#FF2B01"/><path d="M0 24.99c-.058-6.82 3.136-13.52 8.164-17.988C13.133 2.415 19.817 0 26.5 0c6.684 0 13.368 2.415 18.337 7.002C49.866 11.47 53.06 18.17 53 24.991h-.118c-.237-3.38-1.124-6.64-2.662-9.598-1.42-2.958-3.49-5.554-5.975-7.666-2.484-2.113-5.264-3.803-8.28-4.89-3.077-1.086-6.271-1.63-9.465-1.57-3.194 0-6.389.484-9.405 1.63-3.076 1.027-5.856 2.717-8.34 4.83C6.27 9.839 4.2 12.435 2.78 15.393 1.243 18.35.415 21.61.178 24.99H.001z" fill="#FF966E"/><path d="M52.94 24.99c.12 3.381-.472 6.882-1.833 10.021-1.36 3.14-3.43 6.037-5.915 8.39-4.969 4.77-11.83 7.305-18.692 7.305-6.802 0-13.723-2.535-18.751-7.304-2.484-2.354-4.555-5.191-5.915-8.39C.532 31.811-.118 28.371 0 24.99h.118C.06 31.81 3.253 38.452 8.222 42.919c4.969 4.527 11.653 6.942 18.278 6.882 6.625 0 13.31-2.415 18.278-6.882 5.028-4.467 8.163-11.107 8.104-17.868l.059-.06z" fill="#9C2901"/><path d="M52.94 24.99c.06 6.822-3.075 13.462-8.103 17.99-4.969 4.527-11.653 6.941-18.337 6.941-6.625 0-13.31-2.414-18.337-6.942C3.194 38.512 0 31.812.059 24.991h.06c.058 6.82 3.253 13.4 8.221 17.807 4.97 4.467 11.594 6.821 18.16 6.821 6.566.06 13.19-2.293 18.16-6.82 4.968-4.407 8.163-10.987 8.28-17.808z" fill="#FCA669"/><path d="M38.567 6.76c-.591-.603-1.42-.603-2.248-.724-.769-.12-1.597-.12-2.425-.18l-5.028-.182c-1.715-.12-3.43-.302-5.028-.483-.828-.06-1.656-.18-2.425-.12-.828 0-1.538.06-2.307.482l-.177-.12c.532-.785 1.42-1.147 2.248-1.389.828-.241 1.715-.302 2.602-.362 1.716 0 3.49.12 5.206.181 1.715.121 3.49.242 5.205.604.828.12 1.656.302 2.484.604.77.362 1.716.724 2.07 1.63l-.177.06z" fill="#A81C01"/><path d="M19.047 5.553c-.473.604-.473 1.45-.355 2.234.119.785.296 1.57.65 2.294.71 1.388 1.953 2.535 2.249 4.225.236 1.57.828 3.079 1.656 4.407.414.664.946 1.328 1.538 1.81.591.484 1.42.725 2.13.363 1.419-.664 2.602-1.75 3.726-2.837 1.065-1.147 2.13-2.354 3.194-3.501 1.006-1.208 2.13-2.355 3.135-3.562a10.374 10.374 0 001.36-1.932c.355-.664.592-1.509.296-2.293h.06c.355.724.236 1.69-.119 2.475-.295.664-.769 1.388-1.242 2.052-.946 1.268-2.011 2.475-2.958 3.682-1.005 1.328-2.07 2.475-3.194 3.682-1.124 1.087-2.247 2.294-3.963 3.079-.118.06-.236.12-.355.12l-.118.061c-.118 0-.178 0-.237.06-.296 0-.591 0-.887-.06-.532-.12-1.006-.422-1.36-.724-.71-.543-1.243-1.268-1.716-1.992a16.079 16.079 0 01-1.065-2.294 5.086 5.086 0 01-.355-1.268c-.059-.422-.118-.905-.177-1.207-.177-1.388-1.301-2.535-2.011-4.105-.355-.785-.473-1.63-.532-2.475 0-.422 0-.845.059-1.267.059-.423.295-.846.532-1.147l.06.12zm12.422 18.412c-.178.784.177 1.63.71 2.173.591.543 1.242.965 1.951 1.388 1.42.785 2.84 1.51 4.2 2.354 1.42.845 2.899 1.51 4.437 1.932.769.181 1.538.362 2.366.362.769 0 1.597-.06 2.247-.483.71-.422.947-1.207.947-2.052.06-.785.118-1.63.177-2.415.178-1.63.415-3.26.474-4.89.059-.844-.119-1.63-.296-2.414a26.03 26.03 0 00-.828-2.294c-.65-1.449-1.36-3.018-2.603-4.044l.06-.06c.709.422 1.241 1.086 1.715 1.75.473.664.887 1.388 1.242 2.173.355.785.65 1.51.887 2.354.118.423.237.785.355 1.268.06.181.118.362.118.664v.664c.06 1.63-.177 3.26-.295 4.89-.06.784-.119 1.63-.178 2.414 0 .362 0 .966-.236 1.51-.237.543-.592 1.025-1.065 1.267-.947.543-1.893.604-2.78.604-.888-.06-1.716-.242-2.544-.483-1.597-.483-3.135-1.147-4.495-2.113-1.361-.845-2.721-1.63-4.082-2.535-.71-.483-1.36-.966-1.952-1.57-.296-.362-.532-.724-.65-1.147-.119-.422-.06-.905.059-1.267h.059z" fill="#FC8F5C"/><path d="M45.192 13.643c-.414-.121-.769-.121-1.065 0-.118 0-.236.12-.295.18-.119.061-.178.182-.355.303l-1.775 1.448c-.591.483-1.183.906-1.774 1.389-.592.422-1.183.845-1.775 1.328-1.183.845-2.366 1.75-3.49 2.595-1.065.966-2.188 1.75-3.135 3.079h-.177c.295-1.63 1.3-2.898 2.306-4.044a24.245 24.245 0 013.49-3.08 43.617 43.617 0 013.904-2.534c.651-.363 1.361-.725 2.07-1.087.356-.181.77-.302 1.184-.241.355.06.71.301 1.005.482l-.118.182z" fill="#A81C01"/><path d="M43.004 38.996c.413.784.295 1.87-.296 2.656-.592.724-1.302 1.267-2.011 1.81-1.42.966-2.958 1.69-4.437 2.475l-2.248.966c-.828.363-1.715.604-2.602.664-.947 0-1.834-.06-2.662-.422a4.107 4.107 0 01-1.952-1.811l.059-.06c1.006 1.388 2.84 1.81 4.436 1.569 1.657-.181 3.135-1.087 4.614-1.75 1.538-.665 3.076-1.389 4.496-2.234.71-.423 1.42-.906 2.011-1.51.592-.603.769-1.508.532-2.293l.06-.06z" fill="#FC8F5C"/><path d="M26.737 45.394c-.888-1.267-1.065-2.837-1.006-4.346 0-1.51.06-2.958.177-4.467.119-1.51.237-2.958.651-4.467.178-.724.414-1.449.887-2.052a3.908 3.908 0 011.893-1.329c1.538-.362 3.017.363 4.26 1.087 1.3.785 2.424 1.69 3.608 2.596 1.123.966 2.247 1.871 3.312 2.958 1.006 1.026 2.13 2.112 2.544 3.621l-.178.06c-.769-1.267-1.893-2.172-3.076-2.957-1.183-.845-2.366-1.63-3.549-2.475-1.183-.785-2.366-1.63-3.55-2.233-1.123-.664-2.365-1.027-2.957-.785h-.177l-.118.06h-.06c.06-.06 0 0 0 0-.059 0-.059.06-.118.06-.118.121-.296.242-.414.423-.296.362-.532.906-.71 1.51-.414 1.206-.591 2.655-.828 4.044l-.65 4.406c-.296 1.389-.355 2.777.236 4.165l-.177.121z" fill="#A81C01"/><path d="M22.478 28.794c.65.362 1.301.905 1.597 1.69.296.785.296 1.57.236 2.354-.059 1.57-.355 3.019-.532 4.528-.177 1.509-.473 2.958-.828 4.467a16.294 16.294 0 01-.71 2.233c-.355.724-.71 1.57-1.656 2.173-.533.302-1.183.302-1.657.181-.236-.06-.473-.18-.71-.302l-.473-.24c-.591-.303-1.242-.544-1.952-.846-1.36-.543-2.839-1.207-4.022-2.233-1.183-.966-2.188-2.174-3.135-3.38a20.889 20.889 0 01-1.183-1.933c-.296-.664-.591-1.448-.532-2.233h.059c.118 1.51 1.124 2.716 2.07 3.863.947 1.147 2.011 2.234 3.135 3.079 1.183.905 2.544 1.509 3.904 2.052.71.242 1.36.483 2.07.845.356.181.651.363.947.423.355.06.71.06 1.005-.12.592-.363 1.006-1.027 1.302-1.691a12.64 12.64 0 00.71-2.113c.414-1.449.65-2.897.946-4.406.296-1.45.592-2.898.77-4.407.058-.724.117-1.51-.06-2.233-.177-.665-.769-1.208-1.36-1.69l.059-.061z" fill="#FC8F5C"/><path d="M6.861 35.253c0-.785.414-1.63 1.006-2.113.591-.543 1.242-.966 1.893-1.389 1.301-.784 2.662-1.448 4.022-2.173 1.36-.664 2.78-1.267 4.318-1.57 1.479-.361 3.194-.24 4.437.786l-.119.12c-1.597-.362-2.78 0-4.022.483-1.242.544-2.544 1.208-3.845 1.872l-2.011.965c-.71.242-1.36.604-2.07.846-.71.24-1.36.482-1.952.784-.592.302-1.124.604-1.42 1.389H6.86zm14.433-14.065c-.887-1.328-1.893-2.656-2.78-4.045L16.03 13.04c-.355-.664-.828-1.328-1.243-1.872-.414-.543-.946-1.026-1.183-1.086-.118 0 0 0 0 0l-.118.06-.236.12-.415.182c-.591.362-1.123.785-1.656 1.207-1.124.906-2.07 2.053-2.898 3.26-.414.604-.828 1.207-1.124 1.871-.296.604-.592 1.268-.769 1.992-.414 1.389-.71 2.898-.769 4.407-.06.785-.06 1.57 0 2.354.118.785.237 1.51.71 2.113l-.06.181c-.65-.543-1.005-1.328-1.182-2.113-.237-.785-.355-1.63-.414-2.414-.119-1.63-.06-3.26.295-4.89.296-1.63 1.006-3.139 1.893-4.467.887-1.388 1.952-2.656 3.135-3.682a10.549 10.549 0 011.952-1.388c.355-.182.71-.363 1.124-.483a1.607 1.607 0 011.302.06c.768.423 1.242 1.087 1.715 1.75.473.665.828 1.389 1.183 2.113.71 1.449 1.36 2.958 2.011 4.407.71 1.509 1.597 2.837 2.189 4.407l-.178.06z" fill="#A81C01"/><path d="M38.567 6.76c-.296-.784-1.183-1.146-1.952-1.448-.828-.302-1.656-.483-2.543-.604-1.657-.302-3.372-.422-5.088-.483-1.774-.12-3.49-.241-5.205-.18-.828 0-1.715.12-2.543.301-.829.181-1.657.543-2.13 1.207l-.177-.12c.236-.966 1.183-1.63 2.07-2.113.887-.362 1.834-.604 2.721-.785 1.834-.302 3.608-.241 5.324-.181 1.774.12 3.549.302 5.323.905.888.242 1.716.664 2.544 1.147.414.302.828.544 1.183.906.355.362.65.845.65 1.388l-.177.06zm6.625 6.882c-.592-.483-1.42-.603-2.07-.18-.651.301-1.302.724-1.953 1.086-1.301.785-2.602 1.63-3.785 2.595-1.243.906-2.426 1.872-3.49 2.958-1.065 1.087-2.011 2.355-2.366 3.864h-.178c-.177-.845 0-1.75.296-2.596.296-.845.71-1.57 1.183-2.294.946-1.388 2.188-2.475 3.43-3.501 1.361-.905 2.722-1.69 4.2-2.294.77-.302 1.48-.543 2.307-.724.178 0 .474-.12.77-.12.295 0 .532 0 .768.12.474.18.828.543 1.006.905l-.118.181zM26.736 45.394c-1.183-1.026-1.597-2.837-1.774-4.346-.119-1.51-.237-3.018-.237-4.528-.059-1.569.06-3.139.473-4.768.178-.845.533-1.69 1.124-2.536.296-.483.71-.845 1.124-1.207l.355-.181.178-.12.118-.061c.296-.12.532-.242.828-.302 1.124-.302 2.189-.12 3.017.181.946.242 1.656.664 2.366 1.087a25.599 25.599 0 013.608 2.897c1.065 1.026 2.13 2.113 3.076 3.32.473.604.887 1.268 1.301 1.932.414.664.71 1.449.77 2.233l-.178.06c-.414-1.388-1.538-2.474-2.544-3.5a49.751 49.751 0 00-3.312-2.898c-1.124-.905-2.307-1.81-3.55-2.535-1.3-.725-2.72-1.389-4.08-1.026-1.361.362-2.19 1.75-2.604 3.139-.414 1.388-.532 2.897-.65 4.346a57.538 57.538 0 00-.178 4.467c-.059 1.448.06 3.018.947 4.225l-.178.121zM6.862 35.253c-.178-.362-.178-.906-.119-1.388.119-.483.355-.906.592-1.268.532-.785 1.183-1.328 1.834-1.871 1.242-1.026 2.543-1.75 3.963-2.475 1.42-.664 2.957-1.268 4.673-1.389.887-.06 1.774 0 2.662.302.828.302 1.597.906 2.01 1.63l-.058.12c-1.183-.965-2.84-1.026-4.26-.663-1.478.362-2.839 1.026-4.2 1.69-1.419.664-2.78 1.328-4.08 2.052a8.287 8.287 0 00-1.893 1.328c-.533.483-.947 1.147-.947 1.932h-.177zm14.433-14.065c-.592-1.51-1.479-2.897-2.13-4.346-.71-1.449-1.36-2.958-2.07-4.346-.355-.725-.769-1.389-1.183-2.053-.473-.664-1.006-1.328-1.656-1.69-.355-.12-.71-.181-1.065-.06-.296.12-.71.301-1.006.483-.71.362-1.36.845-1.952 1.388-1.183 1.026-2.247 2.233-3.075 3.561-.888 1.328-1.597 2.777-1.952 4.347-.296 1.57-.414 3.199-.296 4.768.059.785.177 1.63.355 2.355.177.845.473 1.57 1.124 2.052l-.119.181a2.817 2.817 0 01-1.005-.905l-.178-.242-.118-.302c-.118-.18-.177-.422-.296-.603a18.62 18.62 0 01-.71-2.415c-.295-1.69-.414-3.44-.118-5.191.118-.906.355-1.75.71-2.656.355-.785.71-1.63 1.183-2.354.887-1.51 2.07-2.838 3.372-4.045.71-.543 1.42-1.086 2.247-1.509a6.42 6.42 0 01.651-.362l.296-.12.118-.061c.118-.06.178-.06.296-.121.769-.241 1.715-.12 2.307.241 1.183.664 1.715 1.51 2.188 2.294.474.785.829 1.51 1.124 2.294.651 1.51 1.183 3.079 1.657 4.588.295.845.532 1.57.769 2.354.295.785.532 1.57.65 2.415l-.118.06z" fill="#FF4A24"/><path d="M6.33 27.707c1.242.906 2.957.664 4.377.363 1.479-.363 2.898-1.027 4.318-1.57 1.42-.604 2.84-1.147 4.2-1.81.65-.363 1.36-.725 1.833-1.329a2.206 2.206 0 00.296-2.173h.06c.473.664.413 1.69 0 2.475-.474.724-1.184 1.207-1.894 1.63-1.3.845-2.78 1.388-4.14 2.052-1.479.483-2.899 1.147-4.496 1.389-.828.12-1.597.18-2.425.12-.828-.18-1.656-.422-2.188-1.086l.059-.06z" fill="#FC8F5C"/><path d="M28.925 33.864c-.532 0-.769 1.449-.355 1.69.414.302.533-1.69.355-1.69zm4.495-8.33c-.236.483.888 1.328 1.361 1.087.414-.242-1.301-1.268-1.36-1.087zM18.04 33.26c-.472-.24-1.3.906-1.064 1.329.296.422 1.242-1.268 1.065-1.328zm-3.016-.603c.355.363 1.538-.422 1.42-.905-.06-.483-1.538.784-1.42.905zm6.093-.724c-.414.06-.532 1.147-.177 1.328.355.12.296-1.328.177-1.328zm-5.501-7.666c-.177-.363-1.183-.121-1.242.241-.06.362 1.301-.12 1.242-.241zm-1.064-4.226c0-.362-1.006-.604-1.243-.302-.177.302 1.243.423 1.243.302zm11.889-3.561c-.414 0-.65 1.026-.355 1.267.355.242.533-1.267.355-1.267zm2.898-.665c-.237 0-.414.664-.177.785.177.12.236-.785.177-.785zm-5.205-1.448c-.355-.12-.71.604-.414.785.295.241.532-.725.414-.785zm-9.05 1.086c-.296-.181-.828.362-.591.664.177.302.71-.543.591-.664zM31.41 35.856c-.356.121-.296 1.208.058 1.268.296.12.06-1.328-.059-1.268zm5.086-12.797c-.118-.241-.65-.12-.71.06-.059.242.71 0 .71-.06zm-.946-1.811c.177.181 1.124-.362 1.124-.603.059-.242-1.183.543-1.124.603zm-3.844 10.685c-.355.241.118 1.207.532 1.207.355-.06-.473-1.268-.532-1.207z" fill="#fff"/><path d="M19.106 45.877c.592.181 1.183 0 1.597-.422.415-.423.71-.906.947-1.449.473-1.087.769-2.294 1.183-3.501.06.664 0 1.267-.118 1.931a11.106 11.106 0 01-.533 1.872c-.236.603-.65 1.207-1.183 1.57-.296.18-.65.301-1.005.301-.355 0-.65-.12-.888-.302zm13.369 1.086c1.656-.965 3.312-1.81 5.027-2.656l2.544-1.207c.828-.423 1.715-.785 2.484-1.328-.65.724-1.478 1.207-2.306 1.75-.77.483-1.657.906-2.485 1.329-1.715.845-3.43 1.569-5.264 2.112zm13.368-14.245c.65-.121 1.242-.242 1.715-.604.414-.362.71-.905.828-1.51.355-1.206.414-2.474.651-3.742.118.664.177 1.268.177 1.932 0 .664-.059 1.328-.236 1.992-.178.664-.532 1.328-1.183 1.69-.65.423-1.36.302-1.952.242zM9.287 28.854c1.656-.664 3.253-1.207 4.85-1.871 1.657-.604 3.254-1.268 4.851-1.872-1.36 1.026-3.017 1.811-4.614 2.475-1.656.604-3.372 1.087-5.087 1.268zm16.149-7.606c.414.181.887.06 1.3-.12a4.819 4.819 0 001.184-.725c.769-.543 1.42-1.147 2.13-1.81 1.36-1.268 2.661-2.717 4.022-4.045-.474.905-1.065 1.63-1.657 2.414a21.591 21.591 0 01-1.952 2.113c-.71.664-1.42 1.268-2.247 1.75-.414.242-.828.484-1.36.604-.474.121-1.066.121-1.42-.18zM9.287 6.7c1.538-1.57 3.49-2.716 5.442-3.682 2.011-.966 4.14-1.63 6.27-2.113 2.189-.422 4.377-.603 6.625-.483 2.189.121 4.377.604 6.448 1.328a33.715 33.715 0 00-6.507-.845c-2.13-.06-4.318.121-6.388.604-2.189.362-4.26 1.087-6.27 1.932-1.953.845-3.905 1.871-5.62 3.26z" fill="#FFD8D2"/><path d="M19.935 29.88c-.77.846-1.657 1.45-2.426 2.113-.414.302-.828.725-1.064 1.207-.237.483-.355 1.027-.474 1.57v.241l-.295-.12c-.829-.363-1.716-.544-2.603-.664-.887-.121-1.775-.06-2.662.12v-.06c.77-.543 1.775-.724 2.78-.724a5.62 5.62 0 012.721.905l-.355.181c.237-.543.474-1.026.71-1.509.296-.543.532-1.026.887-1.449.355-.483.829-.784 1.302-1.086a6.748 6.748 0 011.479-.725zm-.355 7.184a6.764 6.764 0 01-.178-2.173c.06-.362.177-.725.237-1.087.059-.362.059-.724.059-1.087 0-.724.118-1.509.473-2.233.237-.302.532-.664.947-.845.414-.181.887-.06 1.183.181v.06c-.829-.12-1.243.302-1.48.906-.295.604-.532 1.267-.768 1.992a3.122 3.122 0 00-.178 1.026c0 .362.06.724.06 1.087a9.06 9.06 0 01-.237 2.173h-.119z" fill="#FCA669"/><path d="M14.138 36.762a2.262 2.262 0 011.597-.664c.296.06.591.12.828.12h.887c1.124-.06 2.307.302 3.135 1.208v.06c-1.183-.241-2.13-.604-3.194-.966-.237-.06-.532-.12-.828-.06-.296 0-.532.12-.77.18a5.003 5.003 0 01-1.655.122zm15.675 1.69c-.237-.724-.355-1.448-.237-2.173.06-.362.177-.724.296-1.026.059-.362.177-.724.296-1.087.177-.362.532-.724.946-.724.414-.06.828.06 1.183.241a3.9 3.9 0 011.538 1.57h-.06c-.65-.362-1.182-.724-1.774-1.026-.591-.302-1.124-.423-1.538.12-.236.242-.355.604-.414.906-.059.362 0 .724 0 1.026 0 .664-.059 1.388-.177 2.113l-.06.06z" fill="#FCA669"/><path d="M27.86 38.996c.355-.363.829-.604 1.361-.785a3.308 3.308 0 011.538 0c.473.18.947.302 1.42.543a7.89 7.89 0 011.42.724l-.474.182c.178-.725.473-1.45 1.065-1.932.532-.483 1.242-.845 1.952-.845v.06c-.592.362-1.124.725-1.538 1.208-.414.482-.77 1.026-.947 1.63l-.118.422-.296-.302c-.355-.302-.71-.664-1.123-.905-.414-.242-.947-.363-1.42-.363-.947.06-1.834.121-2.84.363zM11.89 23.844c-.12-.362.058-.785.295-1.026.237-.242.591-.423.887-.544.355-.06.65-.06 1.006-.06.296 0 .65-.06.946-.12.65-.121 1.302-.121 1.952.06.592.18 1.183.483 1.597 1.026v.06c-.591-.18-1.183-.301-1.774-.422l-1.775-.362c-.295-.06-.65-.06-.946 0-.296.06-.592.241-.828.362-.533.241-1.065.422-1.302 1.026h-.059zm7.098-3.32c-.65-.241-1.242-.543-1.774-.966-.296-.18-.533-.422-.828-.603a4.92 4.92 0 00-1.006-.302c-1.302-.181-2.544-.181-3.668.603l-.059-.06c.296-.664 1.006-1.147 1.775-1.268.769-.12 1.479.06 2.13.423.295.181.59.302.946.422.295.121.65.182 1.005.363.533.302 1.124.784 1.48 1.388z" fill="#FCA669"/><path d="M15.853 13.582c-.591.12-1.065.302-1.597.422-.296.121-.533.181-.77.302a1.88 1.88 0 00-.532.664c-.473 1.087-.177 2.053.119 3.26h-.06c-.473-.362-.827-.966-.946-1.57a2.19 2.19 0 01.592-1.87c.236-.242.473-.423.71-.604.236-.182.473-.423.71-.604.532-.302 1.242-.302 1.833 0h-.059zm5.797 1.448a2.919 2.919 0 01.355-1.69c.295-.543.887-.965 1.478-.965.592-.06 1.183.18 1.657.422.473.302.946.664 1.3 1.147h-.472c.236-.422.473-.785.828-1.086.355-.302.71-.544 1.183-.725a3.034 3.034 0 012.602.302v.06c-.828-.12-1.656-.12-2.366.242-.65.302-1.3.845-1.774 1.449l-.237.422-.177-.362c-.237-.423-.533-.905-.947-1.207-.414-.362-1.005-.423-1.478-.242-.474.181-.829.483-1.183.845a6.133 6.133 0 00-.71 1.389h-.06zm12.125 7.848c.355-.483.828-.785 1.36-.966.297-.06.533-.06.829-.12.296-.06.532-.121.828-.242.532-.181 1.242-.181 1.775.181.532.423.65 1.147.532 1.69h-.06c-.295-.482-.532-.905-.886-1.146-.355-.242-.828-.363-1.36-.363-.237 0-.533 0-.77.121-.236.06-.473.241-.65.362a4.504 4.504 0 01-1.598.483zm2.012 2.112c.414-.12.828-.06 1.124.242.118.121.237.363.296.483l.295.483c.237.362.237.785.178 1.207-.118.363-.296.725-.592 1.027h-.059c-.059-.845.119-1.389.178-2.113a.693.693 0 00-.178-.483c-.118-.12-.296-.181-.414-.241-.296-.121-.532-.302-.828-.544v-.06z" fill="#FCA669"/></g><defs><clipPath id="clip0_419_13162"><path fill="#fff" d="M0 0h53v53H0z"/></clipPath></defs></svg>