<svg width="99" height="96" fill="none" xmlns="http://www.w3.org/2000/svg"><path d="M89.196 36.769c4.384 18.619-12.022 42.234-32.505 43.933C32.734 82.586 13.066 68.2 10.765 40.749c0 0 5.743 33.491 40.578 34.084 30.32.512 38.607-28.361 37.853-38.064z" fill="#DE3B01"/><path d="M89.197 36.77c.753 9.702-7.534 38.575-37.942 38.01-34.835-.592-40.577-34.084-40.577-34.084 1.06-8.129 9.286-3.647 31.09-4.549 21.803-.901 43.034-5.632 46.588-2.166.351.812.596 1.8.84 2.788zM50.639 66.841c23.088.353 35.682-22.318 23.594-27.567-12.088-5.25-4.873 9.672-19.747 11.63-14.874 1.959-14.633-10.388-24.708-9.018-10.94 1.21-5.737 24.646 20.86 24.955z" fill="#FF6924"/><path d="M75.913 44.853c-1.313 3.172-6.575-2.044-6.575-2.044s7.94-1.216 6.575 2.044zm-9.323 5.304s7.938-.617 5.709 2.483c-2.177 3.01-5.71-2.483-5.71-2.483z" fill="#FF9E03"/><path d="M74.234 39.273c12.034 5.338-.507 27.921-23.595 27.568-26.545-.397-31.8-23.746-20.896-25.096 10.163-1.317 9.834 10.976 24.708 9.018 14.821-1.87 7.695-16.739 19.783-11.49zm-4.841 3.446s5.208 5.304 6.574 2.044c1.313-3.172-6.575-2.044-6.575-2.044zm2.904 9.92c2.23-3.1-5.709-2.483-5.709-2.483s3.533 5.494 5.71 2.483zm-8.394 6.948c4.503-2.089-4.184-6.007-4.184-6.007s-.319 8.095 4.184 6.007zm-12.067.889c3.474.414.067-6.085.067-6.085s-3.488 5.583-.067 6.085zm-10.215.805c5.692 2.112 2.38-7.332 2.38-7.332s-8.072 5.22-2.38 7.332zm-5.576-6.486c2.887 2.581 3.133-4.597 3.133-4.597s-6.108 1.961-3.133 4.596zM28.33 49.66c1.07 2.807 6.375-3.001 6.375-3.001s-7.532.141-6.375 3.001z" fill="#DE3B01"/><path d="M59.774 53.492s8.633 4.007 4.184 6.007c-4.556 2.177-4.184-6.007-4.184-6.007zm-7.82.811s3.266 6.534-.067 6.086c-3.474-.414.067-6.086.067-6.086zm-7.952-.351s3.312 9.445-2.38 7.332c-5.693-2.112 2.38-7.332 2.38-7.332zm-4.912-3.807s-.105 7.143-3.132 4.596c-2.887-2.582 3.132-4.596 3.132-4.596zm-4.435-3.397s-5.305 5.808-6.374 3.001c-1.105-2.948 6.374-3.001 6.374-3.001z" fill="#FF9E03"/><path d="M88.551 33.857c.933 1.043.965 2.383 1.138 3.69.085 1.252.03 2.54-.027 3.827a35.613 35.613 0 01-1.428 7.546c-1.493 4.864-3.762 9.622-6.947 13.706-3.096 4.138-7.284 7.497-11.946 9.85-4.662 2.353-9.921 3.505-15.108 3.74-5.133.146-10.353-.36-15.306-1.906-5.006-1.458-9.798-3.868-13.635-7.264-3.979-3.36-7.162-7.442-9.62-11.928-2.318-4.521-4.053-9.41-4.906-14.37l.141-.034c2.182 9.724 7.346 19.084 15.11 25.329 7.8 6.386 18.112 9.002 28.114 8.55 5.045-.2 10.022-1.282 14.49-3.512a32.959 32.959 0 0011.628-9.321c3.166-3.856 5.558-8.419 7.086-13.142.834-2.38 1.352-4.83 1.64-7.299.144-1.234.288-2.469.202-3.721-.085-1.253-.117-2.593-.873-3.53l.247-.211z" fill="#C42901"/><path d="M88.498 33.943c.845.99.824 2.419.962 3.583.085 1.253-.059 2.487-.203 3.722-.288 2.468-.946 4.954-1.693 7.386-1.58 4.812-3.92 9.287-7.139 13.23-3.078 3.909-7.125 7.233-11.68 9.41-4.557 2.176-9.587 3.346-14.632 3.546-10.002.453-20.402-2.217-28.201-8.603-7.8-6.386-13.017-15.658-15.146-25.47 1.136 4.889 3.118 9.567 5.595 13.824 2.565 4.31 5.766 8.163 9.763 11.294 7.711 6.333 18.077 8.862 27.99 8.356 4.905-.165 9.881-1.247 14.437-3.424 4.503-2.088 8.497-5.325 11.575-9.233 3.166-3.856 5.505-8.33 7.086-13.142.835-2.38 1.44-4.777 1.781-7.334.144-1.234.288-2.468.203-3.721.038-1.058.005-2.399-.698-3.424z" fill="#FCA669"/><path d="M10.768 40.75c.18-1.694.872-3.438 2.55-4.228 1.536-.755 3.3-.892 4.958-.853 3.37-.01 6.72.21 10.124.341 6.667.298 13.511.102 20.197-.429 6.775-.478 13.338-1.204 20.13-1.91 3.353-.381 6.652-.673 10.039-.912 1.623-.102 3.334-.151 5.08-.06 1.605.128 3.492.186 4.883 1.265l-.106.176c-.652-.513-1.428-.62-2.256-.64-.776-.108-1.658-.04-2.487-.06-1.623.103-3.3.293-4.976.483-3.264.433-6.581.955-9.986 1.423-6.635 1.043-13.34 1.804-20.079 2.423-6.81.337-13.654.532-20.39-.048-3.386-.36-6.772-.721-10.034-.887-1.605-.128-3.263-.167-4.64.324-1.606.472-2.368 1.934-2.778 3.61l-.23-.019z" fill="#FF966E"/><path d="M10.995 40.767c.905 5.47 2.286 10.747 4.62 15.639 2.247 4.838 5.446 9.29 9.46 12.792 4.013 3.502 8.646 6.176 13.687 7.775 5.041 1.6 10.349 2.159 15.623 1.977 5.31-.04 10.358-1.44 14.862-4.128 4.592-2.635 8.481-6.295 11.807-10.415 3.237-4.172 5.789-9 7.124-14.2a29.162 29.162 0 00.16-15.998l.195-.123c1.892 5.226 2.038 10.959.826 16.353-1.212 5.395-3.694 10.504-6.861 14.96-3.31 4.49-7.358 8.414-12.144 11.172-4.752 2.9-10.276 4.491-15.868 4.602-5.504.163-11.129-.467-16.434-2.226-5.305-1.758-10.202-4.592-14.144-8.411-4.084-3.784-7.265-8.466-9.352-13.569-2.122-5.243-3.397-10.696-3.79-16.218l.23.018z" fill="#FF2B01"/><path d="M77.932 42.703a7.819 7.819 0 00-3.311-1.878c-.318-.071-.635-.142-.864-.16-.318-.072-.723-.196-.952-.214a5.451 5.451 0 00-1.746-.093c-.6-.001-1.023.104-1.218.227-.247.21-.3.299-.319.528-.265.44-.727 1.604-1.153 2.908-.764 2.662-2.801 6.237-6.051 8.24-3.163 2.057-6.71 2.56-9.726 2.783-3.193.116-6.878-.546-9.96-2.405-2.994-1.806-5.105-4.28-6.724-5.978-1.707-1.75-3.01-2.776-5.444-2.922l-.229-.019s-.141.035 0 0l-.141.035-.459-.036c-.229-.018-.458-.037-.74.033-.512.052-.989.245-1.466.438-1.006.474-1.873 1.513-2.475 2.71l-.512.052c.25-1.41.818-2.75 1.914-3.77s2.473-1.511 3.866-1.631c1.394-.12 2.91-.046 4.162.468 1.392.48 2.572 1.311 3.61 2.178 2.166 1.787 4.084 3.784 6.48 4.99 2.343 1.292 5.076 1.74 7.81 1.587 2.682-.064 5.4-.587 7.766-1.922 2.367-1.335 3.89-3.66 5.006-6.109.603-1.198 1.17-2.537 2.178-3.61 1.15-1.11 2.772-1.211 4.13-.873 1.357.338 2.661.765 3.894 1.508 1.233.744 2.307 1.752 2.992 3.006l-.318-.071z" fill="#C42901"/><path d="M77.93 42.705c-1.282-2.455-4.048-3.643-6.587-4.214-1.27-.285-2.804-.13-3.618.82-.955.986-1.469 2.237-2.072 3.435-1.117 2.45-2.71 5.092-5.218 6.462-2.473 1.51-5.279 1.98-8.101 2.08-2.823.1-5.644-.401-8.163-1.8-2.519-1.4-4.437-3.398-6.514-5.131-1.039-.867-2.13-1.645-3.435-2.072-1.304-.426-2.626-.623-3.932-.45-1.394.12-2.63.576-3.672 1.508-1.043.933-1.558 2.184-1.755 3.506l-.317-.07c-.067-1.483.29-3.07 1.35-4.231.513-.651 1.203-1.197 1.927-1.6.335-.159.724-.405 1.147-.51l.565-.14.141-.034.142-.035.282-.07c1.5-.297 3.21-.345 4.886.064 1.674.41 3.172 1.313 4.351 2.145 2.536 1.77 4.243 3.52 6.34 4.424 1.956.94 4.142 1.297 6.506 1.162 2.452-.083 4.746-.5 6.53-1.467 1.872-.913 3.11-2.568 4.403-4.91.69-1.145 1.311-2.573 2.85-3.927.742-.634 1.89-1.142 2.913-1.246 1.023-.103 1.887.057 2.697.306 1.569.586 2.714 1.277 3.982 2.161 1.268.885 2.129 2.246 2.62 3.622l-.248.212z" fill="#FF4A24"/><path d="M24.81 46.938c.205 3.246 1.592 6.125 3.668 8.458 1.987 2.28 4.47 4.138 7.095 5.36a31.328 31.328 0 008.514 2.614c1.551.215 3.015.377 4.532.451.688.055 1.57-.014 2.258.04.828.02 1.71-.048 2.363-.135 5.928-.268 11.771-2.389 16.665-5.923 2.403-1.793 4.648-3.923 6.189-6.477 1.628-2.5 2.659-5.602 1.802-8.762l.335-.158c1.651 3.038.902 6.67-.534 9.647-1.435 2.978-3.629 5.619-6.103 7.73-5.09 4.256-11.57 6.834-18.15 7.189-6.58.355-13.368-.737-19.146-4.101-2.818-1.7-5.458-3.894-7.269-6.667-1.81-2.774-3.02-6.146-2.482-9.425l.264.16z" fill="#C42901"/><path d="M24.722 46.882c-.537 3.28.726 6.563 2.5 9.195 1.864 2.686 4.364 4.914 7.235 6.526 5.69 3.312 12.39 4.35 18.97 3.995 6.492-.408 12.953-2.757 17.955-7.066 2.474-2.111 4.615-4.664 6.138-7.588 1.383-2.89 2.08-6.434.604-9.365l.142-.035c.949 1.413 1.315 3.196 1.188 4.8-.092 1.746-.502 3.421-1.088 4.99-1.4 3.118-3.559 5.9-6.052 8.24-5.16 4.574-11.87 7.134-18.697 7.7-3.334.151-6.86-.175-10.175-.853-3.315-.678-6.593-1.814-9.534-3.708-2.854-1.841-5.476-4.264-7.321-7.179-1.704-2.95-2.807-6.497-1.953-9.706l.088.054z" fill="#FC8F5C"/><path d="M30.312 47.971c-.422-.495-1.818.225-1.643.931-.001.6 1.766-.737 1.643-.931zm21.056 9.699c-.794.121-.956 1.585-.286 1.868.81.25.657-1.885.286-1.868zM36.95 52.097c-.845-.39-1.73.878-1.132 1.48.51.547 1.397-1.32 1.133-1.48zm23.839 4.292c-.742.633.416 2.894 1.299 2.825.882-.068-1.052-3.036-1.299-2.825zm-18.821.538c-.846-.39-2.315 1.846-1.77 2.535.546.69 2.176-2.411 1.77-2.535zm27.599-5.935c.037-.459-1.32-.797-1.621-.498-.266.44 1.656.639 1.621.498zm1.747-8.076c.052.512 1.48.533 1.746.092.178-.493-1.727-.321-1.746-.092z" fill="#fff"/><path d="M29.941 54.958c.126-1.006.428-1.904 1.082-2.59.354-.388.743-.634 1.131-.88.3-.3.655-.687.867-1.039.566-.74 1.362-1.46 2.227-1.9.865-.438 1.889-.542 2.929-.275l.035.141-4.769 2.53c-.388.245-.777.491-1.078.79-.212.353-.478.793-.602 1.198-.425.705-.991 1.444-1.822 2.025zm1.83 1.944c.495-.422 1.201-.597 1.801-.596.6.002 1.234.144 1.869.287 1.163.461 2.06 1.363 3.082 1.86l-.282.069c.16-.864.322-1.728.712-2.574.39-.845.868-1.638 1.38-2.29.655-.686 1.485-1.266 2.42-1.422.9-.298 1.906-.172 2.664.165l-.053.087c-.883.069-1.73.279-2.4.595a4.989 4.989 0 00-1.82 1.424 8.768 8.768 0 00-1.487 1.866c-.425.705-.85 1.41-1.099 2.22l-.07.318-.265-.16c-.916-.672-2.097-.904-3.225-1.224-.494-.178-.987-.355-1.534-.445-.546-.09-1.093-.179-1.692-.18zm17.168-2.377c-.232 1.181-.5 2.222-.678 3.315l-.269 1.64c-.089.546-.09 1.146-.092 1.745-.756-.936-.964-2.383-.732-3.564.232-1.181.746-2.433 1.771-3.136zm5.206-1.065c.51 1.148.842 2.19 1.21 3.372.14.565.28 1.13.56 1.66.281.53.757.936 1.144 1.29 1.92 1.398 3.911 1.879 6.344 2.625l.035.141c-1.183.368-2.524.4-3.74.027-1.216-.373-2.343-1.293-3.046-2.318l-.984-1.554c-.334-.442-.756-.937-1.126-1.52-.596-1.2-.77-2.506-.397-3.723zm11.007-.324c-.527-.918-.63-1.942-.275-2.929.177-.493.53-.88.797-1.32.265-.441.478-.793.884-1.269.62-.827 1.714-1.248 2.737-1.351a4.735 4.735 0 012.856.641l-.053.088c-.935.157-1.817.225-2.752.382-.882.069-1.73.278-2.454.682-.388.246-.777.492-.954.986-.213.352-.161.864-.197 1.322-.126 1.005-.287 1.87-.589 2.768zm3.515-8.811c-.421-1.094.058-2.487.995-3.243a3.366 3.366 0 013.37-.61c-1.06.563-1.96.86-2.702 1.494-.689.545-1.167 1.337-1.663 2.36z" fill="#FCA669"/><path d="M22.61 38.04c8.291-.404 16.511-.49 24.802-.895 4.163-.131 8.291-.404 12.332-.73 4.128-.272 8.22-.686 12.35-1.558-3.936 1.349-8.083 1.85-12.229 2.353-4.146.502-8.274.774-12.35.959-4.162.131-8.325.262-12.382.218-4.251.078-8.396-.02-12.523-.347zm-9.16.844c-.67.316-.813.951-.868 1.639-.001.6.086 1.252.26 1.958.315 1.271.77 2.507 1.314 3.796 1.053 2.436 2.247 4.838 3.635 7.117 1.335 2.366 2.776 4.557 4.412 6.624 1.635 2.068 3.412 4.1 5.596 5.658-2.503-1.03-4.756-2.869-6.586-4.813-1.918-1.998-3.535-4.295-4.87-6.661a39.462 39.462 0 01-3.422-7.47c-.403-1.323-.752-2.735-.926-4.041-.033-.74-.12-1.394.076-2.117.248-.81.727-1.603 1.38-1.69zM53.425 67.8c2.241-.33 4.5-.89 6.583-1.555 2.136-.753 4.184-1.56 6.074-2.702 3.903-2.09 7.191-5.151 10.198-8.743-.904 2.097-2.214 4.07-3.788 5.883-1.61 1.672-3.483 3.184-5.514 4.361-4.15 2.301-8.897 3.401-13.553 2.756z" fill="#FFD8D2"/></svg>