<svg width="104" height="104" fill="none" xmlns="http://www.w3.org/2000/svg"><path d="M87.625 59.695c-.593 4.567-2.05 8.973-4.6 13.2C72.933 89.63 50.309 94.48 32.43 83.695c-17.79-10.73-24.14-33.058-14.047-49.79 2.39-3.964 5.52-7.36 9.142-9.98-2.139 1.952-4.032 4.294-5.625 6.936-9.668 16.028-3.615 37.456 13.47 47.762 17.086 10.305 38.863 5.664 48.53-10.365 1.736-2.677 2.889-5.584 3.725-8.563z" fill="#8C2E1A"/><path d="M87.626 59.693c-.748 3.032-1.937 5.799-3.636 8.617-9.669 16.028-31.357 20.723-48.531 10.364-17.086-10.306-23.139-31.733-13.47-47.762a31.684 31.684 0 015.625-6.936C38.627 13.683 56.217 11.8 70.572 20.46c14.267 8.606 20.739 24.76 17.053 39.233zm-11.427-1.367c5.504-.164 6.678-12.067 2.411-12.959-4.266-.892-6.641 4.041-6.753 6.616-.077 2.717 1.29 6.424 4.342 6.343zM60.2 65.732c.365 2.382 9.538 1.91 8.998-1.178-.627-3.142-9.641-2.933-8.998 1.178zM51.022 76.17c-.605 2.398 8.227 4.482 9.453.657 1.314-3.771-8.42-4.958-9.453-.657zm14.871-31.027c1.864 2.686 13.767-3.707 12.769-6.831-1.033-3.266-5.523.992-10.06 2.34-4.483 1.26-4.43 1.77-2.709 4.491zM55.845 57.82c-.285 1.269 2.745 2.617 3.42.502.71-1.974-3.188-1.684-3.42-.502zm-12.46 18.068c-.024 2.628 2.623 2.422 3.278 1.136.69-1.145-3.328-2.248-3.278-1.136zm3.593-5.16c4.18.24 6.251-3.195 5.481-5.702-.682-2.453-12.04-2.938-14.2.443-1.328 2.202 4.54 5.02 8.719 5.26zm19.761-32.762c1.46 1.362 3.802-4.312 2.762-4.58-3.014-.977-4.31 3.166-2.762 4.58zM47.698 56.99c4.07 1.615 7.872-2.098 10.124-7.226 2.252-5.127.897-6.665-3.42-8.668-4.316-2.003-7.294 4.128-8.275 8.941-.876 4.637.584 6.598 1.57 6.953zm20.666-27.291c1.748-1.108.594-5.167-2.036-4.591-3 .592.287 5.698 2.035 4.59zm-12.575 6.708c-.109 1.376 7.417 3.633 6.984.37-.38-3.353-6.716-2.01-6.984-.37zm.032-6.226c4.499-.29 5.016-2.74 4.738-4.47-.225-1.817-11.333-3.712-13.566.586-.868 1.639 4.33 4.173 8.828 3.884zM36.932 59.504c3.794-.714 1.758-4.705 1.131-8.446-.626-3.741-3.816-4.824-8.758-3.601-4.906 1.364-1.46 13.772 7.627 12.047zm9.395-19.557c2.184.958 5.812-4.06 5.851-5.719-.049-1.71-6.59-3.014-7.51-1.887-.866 1.039-.703 6.542 1.659 7.606zm-14.234-.298c-.341 2.557 9.86 7.15 10.304 6.216.443-.934.456-6.332-2.523-7.168-2.98-.836-7.404-2.063-7.781.952zm2.78-12.376c.436 2.065 7.19 3.016 7.338-.018.095-2.945-7.844-2.329-7.338.018z" fill="#C24121"/><path d="M76.196 58.327c-.97.015-1.728-.322-2.326-.923-7.036-.88-14.214-1.127-21.429-.914-1.501.896-3.09 1.139-4.834.447l-.352-.213c-2.788.24-5.575.481-8.328.863-.214.952-.78 1.691-2.139 1.953-2.064.436-3.827-.027-5.29-.789-3.793.715-7.553 1.57-11.33 2.655A37.815 37.815 0 0035.315 78.71c17.085 10.305 38.862 5.664 48.53-10.364 1.647-2.73 2.747-5.55 3.583-8.53-3.261-.765-6.629-1.355-9.908-1.892-.248.211-.724.404-1.324.403zm-37.94 7.143c2.16-3.382 13.43-2.95 14.2-.443.682 2.453-1.39 5.888-5.481 5.702-4.18-.24-10.047-3.057-8.719-5.26zm5.126 10.419c-.05-1.112 4.022-.097 3.279 1.136-.656 1.286-3.302 1.492-3.279-1.136zm12.46-18.069c.197-1.322 4.043-1.525 3.42.502-.674 2.115-3.617.82-3.42-.502zM51.02 76.171c1.033-4.301 10.767-3.115 9.453.657-1.314 3.772-10.058 1.74-9.453-.657zm9.18-10.438c-.644-4.112 8.37-4.32 8.998-1.179.54 3.088-8.634 3.56-8.999 1.179z" fill="#DE9988"/><path d="M27.614 23.976c-2.139 1.953-4.032 4.294-5.625 6.936a32.505 32.505 0 00-4.44 12.937c10.444-8.354 21.69-12.861 33.159-14.351-2.52-.8-4.299-2.233-3.803-3.255 2.233-4.298 13.253-2.456 13.566-.585.191 1.076.082 2.451-1.049 3.33 2.4.006 4.745.1 7.126.335-1.391-1.08-2.602-3.851-.396-4.323 2.488-.54 3.661 3.29 2.23 4.468 4.884.664 9.697 1.646 14.562 3.139-2.987-4.805-7.176-9.013-12.46-12.2-14.267-8.606-31.857-6.724-42.87 3.569zm7.26 3.297c-.507-2.347 7.432-2.963 7.337-.018-.148 3.034-6.902 2.083-7.338.018z" fill="#8A301A"/><path d="M78.663 45.28c4.267.892 2.952 12.83-2.411 12.96-3.052.08-4.419-3.627-4.342-6.343.112-2.575 2.487-7.508 6.754-6.616zm-9.464 19.278c.627 3.141-8.546 3.614-8.999 1.178-.643-4.11 8.37-4.32 8.999-1.178zm-8.725 12.27c-1.314 3.771-10.058 1.74-9.453-.657 1.033-4.302 10.767-3.115 9.453.657zM78.75 38.366c.91 3.071-10.994 9.464-12.77 6.832-1.722-2.72-1.915-3.197 2.71-4.492 4.536-1.348 8.991-5.747 10.06-2.34zM59.21 58.412c-.674 2.115-3.564.733-3.42-.502.285-1.269 4.184-1.56 3.42.502zM46.662 77.026c-.656 1.286-3.302 1.492-3.278-1.137-.05-1.111 3.968-.008 3.278 1.137zm5.799-11.998c.683 2.454-1.39 5.888-5.48 5.703-4.18-.24-10.048-3.058-8.72-5.26 2.195-3.24 13.518-2.896 14.2-.443zM69.498 33.39c.987.355-1.301 5.94-2.762 4.58-1.549-1.415-.252-5.557 2.762-4.58zM57.821 49.766c-2.252 5.128-6.053 8.84-10.124 7.226-.987-.355-2.446-2.316-1.518-7.041.928-4.726 3.96-10.945 8.276-8.942 4.264 2.092 5.618 3.63 3.366 8.757zm8.509-24.658c2.629-.576 3.783 3.483 2.035 4.59-1.75 1.107-5.036-3.998-2.036-4.59zM62.827 36.69c.434 3.264-7.093 1.007-6.984-.369.215-1.552 6.55-2.895 6.984.37zm-2.213-11.065c.225 1.817-.151 4.233-4.738 4.469-4.499.29-9.696-2.245-8.828-3.883 2.18-4.211 13.287-2.315 13.566-.586zM38.006 51.148c.627 3.741 2.717 7.644-1.13 8.447-9.035 1.637-12.534-10.683-7.628-12.048 4.942-1.223 8.132-.14 8.758 3.601zm14.17-16.918c.05 1.71-3.578 6.73-5.851 5.719-2.361-1.064-2.525-6.568-1.658-7.606.92-1.127 7.46.176 7.51 1.887zm-9.782 11.636c-.443.934-10.645-3.658-10.304-6.215.378-3.016 4.802-1.788 7.781-.952 2.891.783 2.878 6.18 2.523 7.167zm-.238-18.519c-.095 2.945-6.901 2.082-7.337.018-.453-2.435 7.485-3.052 7.337-.018z" fill="#F9C299"/><path d="M87.853 59.715c-.93 5.325-3.41 10.434-6.93 14.677-3.609 4.19-8.343 7.46-13.622 9.44-10.469 4.015-22.813 2.575-32.465-3.127-9.6-5.79-16.879-15.826-18.3-27.012-.763-5.505-.167-11.272 1.768-16.47 2.023-5.146 5.297-9.778 9.485-13.137l.123.194c-3.89 3.66-6.846 8.363-8.533 13.35-1.74 5.076-2.036 10.544-1.113 15.785 1.792 10.57 8.56 20.057 17.738 25.352 9.16 5.525 20.674 6.945 30.825 3.459 5.03-1.77 9.694-4.722 13.32-8.541 3.677-3.907 6.228-8.735 7.563-13.935l.141-.035z" fill="#701D10"/><path d="M87.994 59.677a33.852 33.852 0 01-7.582 14.163c-3.643 4.049-8.307 7.001-13.48 8.806-10.256 3.662-22.053 2.312-31.388-3.319-9.3-5.49-16.192-15.172-17.878-25.917-.87-5.33-.522-10.885 1.272-16.049 1.74-5.076 4.75-9.866 8.727-13.473l.387.354c-3.202 4.314-5.471 9.07-6.506 13.972-1.122 4.848-.922 9.893.143 14.5 1.153 4.659 3.154 9.108 6.09 12.802 2.796 3.728 6.37 6.964 10.474 9.32 4.051 2.443 8.58 4.094 13.236 4.74 4.69.787 9.524.34 14.183-.813 9.284-2.448 17.537-9.361 21.917-19.21l.405.124z" fill="#DD5136"/><path d="M27.7 24.03c5.585-5.279 13.124-8.419 20.78-8.965 7.71-.635 15.45 1.27 22.055 5.255 6.605 3.984 12.041 9.906 15.183 16.845 3.229 6.992 4.021 15.038 2.134 22.547l-.176-.106c.626-3.826.74-7.6.115-11.342-.539-3.687-1.588-7.323-3.31-10.643-3.212-6.622-8.437-12.297-14.884-15.945-6.288-3.913-13.71-5.747-21.119-5.412-3.705.168-7.357.848-10.835 2.233-3.513 1.244-6.852 3.194-9.856 5.586l-.088-.053z" fill="#B52900"/><path d="M87.767 59.66c-.701 5.943-3.043 11.617-6.652 16.406-3.61 4.79-8.469 8.465-13.96 10.798-10.982 4.666-24.173 3.436-34.39-2.726-10.322-5.986-17.757-16.957-18.928-28.954-.64-5.91.31-12.064 2.721-17.456 2.465-5.48 6.304-10.251 11.145-13.697l.035.141c-4.718 3.64-8.293 8.571-10.422 13.893-2.27 5.357-2.972 11.3-2.174 16.946.798 5.646 2.85 11.207 5.978 15.977 3.128 4.77 7.476 8.713 12.46 11.6 4.933 2.975 10.414 4.84 16.145 5.294 5.679.542 11.52-.38 16.851-2.448 5.332-2.069 10.226-5.603 13.817-10.163 3.68-4.507 6.232-9.934 7.163-15.858l.211.247z" fill="#A83D3B"/></svg>